<svg id="svg" version="1.1" xmlns="http://www.w3.org/2000/svg" xmlns:xlink="http://www.w3.org/1999/xlink" width="400" height="400" viewBox="0, 0, 400,400"><g id="svgg"><path id="path0" d="M266.000 96.800 C 266.000 97.020,265.460 97.200,264.800 97.200 C 264.140 97.200,263.600 97.380,263.600 97.600 C 263.600 97.820,263.240 98.000,262.800 98.000 C 262.360 98.000,262.000 98.180,262.000 98.400 C 262.000 98.620,261.793 98.800,261.539 98.800 C 260.861 98.800,255.200 104.691,255.200 105.397 C 255.200 105.729,255.020 106.000,254.800 106.000 C 254.580 106.000,254.400 106.360,254.400 106.800 C 254.400 107.240,254.220 107.600,254.000 107.600 C 253.780 107.600,253.600 108.039,253.600 108.576 C 253.600 109.113,253.420 109.664,253.200 109.800 C 252.943 109.959,252.800 116.537,252.800 128.224 C 252.800 140.075,252.939 146.400,253.200 146.400 C 253.420 146.400,253.600 146.940,253.600 147.600 C 253.600 148.260,253.780 148.800,254.000 148.800 C 254.220 148.800,254.400 149.160,254.400 149.600 C 254.400 150.040,254.580 150.400,254.800 150.400 C 255.020 150.400,255.200 150.639,255.200 150.930 C 255.200 152.229,261.555 158.000,262.986 158.000 C 263.324 158.000,263.600 158.180,263.600 158.400 C 263.600 158.620,264.140 158.800,264.800 158.800 C 265.460 158.800,266.000 158.980,266.000 159.200 C 266.000 159.448,268.200 159.600,271.800 159.600 C 275.400 159.600,277.600 159.448,277.600 159.200 C 277.600 158.980,278.140 158.800,278.800 158.800 C 279.460 158.800,280.000 158.620,280.000 158.400 C 280.000 158.180,280.335 158.000,280.744 158.000 C 282.671 158.000,287.373 153.587,289.111 150.148 C 291.205 146.004,291.200 146.049,291.194 127.972 C 291.188 111.402,291.024 108.891,289.874 107.741 C 289.723 107.590,289.600 107.137,289.600 106.733 C 289.600 106.330,289.432 106.000,289.227 106.000 C 289.022 106.000,288.734 105.621,288.586 105.157 C 288.242 104.073,282.919 98.800,282.169 98.800 C 281.856 98.800,281.600 98.620,281.600 98.400 C 281.600 98.180,281.240 98.000,280.800 98.000 C 280.360 98.000,280.000 97.820,280.000 97.600 C 280.000 97.380,279.460 97.200,278.800 97.200 C 278.140 97.200,277.600 97.020,277.600 96.800 C 277.600 96.552,275.400 96.400,271.800 96.400 C 268.200 96.400,266.000 96.552,266.000 96.800 M266.000 190.800 C 266.000 191.020,265.460 191.200,264.800 191.200 C 264.140 191.200,263.600 191.380,263.600 191.600 C 263.600 191.820,263.324 192.000,262.986 192.000 C 261.555 192.000,255.200 197.771,255.200 199.070 C 255.200 199.361,255.020 199.600,254.800 199.600 C 254.580 199.600,254.400 199.960,254.400 200.400 C 254.400 200.840,254.220 201.200,254.000 201.200 C 253.780 201.200,253.600 201.740,253.600 202.400 C 253.600 203.060,253.420 203.600,253.200 203.600 C 252.936 203.600,252.800 218.259,252.800 246.776 C 252.800 275.129,252.937 290.038,253.200 290.200 C 253.420 290.336,253.600 290.887,253.600 291.424 C 253.600 291.961,253.780 292.400,254.000 292.400 C 254.220 292.400,254.400 292.760,254.400 293.200 C 254.400 293.640,254.580 294.000,254.800 294.000 C 255.020 294.000,255.200 294.271,255.200 294.603 C 255.200 295.309,260.861 301.200,261.539 301.200 C 261.793 301.200,262.000 301.380,262.000 301.600 C 262.000 301.820,262.360 302.000,262.800 302.000 C 263.240 302.000,263.600 302.180,263.600 302.400 C 263.600 302.620,264.140 302.800,264.800 302.800 C 265.460 302.800,266.000 302.980,266.000 303.200 C 266.000 303.448,268.200 303.600,271.800 303.600 C 275.400 303.600,277.600 303.448,277.600 303.200 C 277.600 302.980,278.140 302.800,278.800 302.800 C 279.460 302.800,280.000 302.620,280.000 302.400 C 280.000 302.180,280.360 302.000,280.800 302.000 C 281.240 302.000,281.600 301.820,281.600 301.600 C 281.600 301.380,281.856 301.200,282.169 301.200 C 282.919 301.200,288.242 295.927,288.586 294.843 C 288.734 294.379,289.022 294.000,289.227 294.000 C 289.432 294.000,289.600 293.670,289.600 293.267 C 289.600 292.863,289.723 292.410,289.874 292.259 C 291.132 291.001,291.188 289.081,291.194 247.028 C 291.200 202.213,291.286 204.158,289.111 199.852 C 287.373 196.413,282.671 192.000,280.744 192.000 C 280.335 192.000,280.000 191.820,280.000 191.600 C 280.000 191.380,279.460 191.200,278.800 191.200 C 278.140 191.200,277.600 191.020,277.600 190.800 C 277.600 190.552,275.400 190.400,271.800 190.400 C 268.200 190.400,266.000 190.552,266.000 190.800 " stroke="none" fill="#04ac44" fill-rule="evenodd"></path><path id="path1" d="M194.200 37.600 C 194.064 37.820,193.513 38.000,192.976 38.000 C 192.439 38.000,192.000 38.180,192.000 38.400 C 192.000 38.620,191.640 38.800,191.200 38.800 C 190.760 38.800,190.400 38.980,190.400 39.200 C 190.400 39.420,190.124 39.600,189.787 39.600 C 189.449 39.600,188.562 40.185,187.814 40.900 C 187.067 41.615,185.908 42.650,185.240 43.200 C 184.571 43.750,184.019 44.425,184.012 44.700 C 184.005 44.975,183.820 45.200,183.600 45.200 C 183.380 45.200,183.200 45.470,183.200 45.800 C 183.200 46.130,183.020 46.400,182.800 46.400 C 182.580 46.400,182.400 46.760,182.400 47.200 C 182.400 47.640,182.220 48.000,182.000 48.000 C 181.780 48.000,181.600 48.540,181.600 49.200 C 181.600 49.860,181.420 50.400,181.200 50.400 C 180.939 50.400,180.800 56.725,180.800 68.576 C 180.800 80.263,180.943 86.841,181.200 87.000 C 181.420 87.136,181.600 87.561,181.600 87.944 C 181.600 88.819,182.499 90.793,182.900 90.797 C 183.065 90.799,183.200 91.061,183.200 91.381 C 183.200 92.137,189.063 98.000,189.819 98.000 C 190.139 98.000,190.400 98.180,190.400 98.400 C 190.400 98.620,190.760 98.800,191.200 98.800 C 191.640 98.800,192.000 98.980,192.000 99.200 C 192.000 99.420,192.439 99.600,192.976 99.600 C 193.513 99.600,194.064 99.780,194.200 100.000 C 194.530 100.533,205.470 100.533,205.800 100.000 C 205.936 99.780,206.487 99.600,207.024 99.600 C 207.561 99.600,208.000 99.420,208.000 99.200 C 208.000 98.980,208.360 98.800,208.800 98.800 C 209.240 98.800,209.600 98.620,209.600 98.400 C 209.600 98.180,209.882 98.000,210.227 98.000 C 210.997 98.000,216.800 92.136,216.800 91.359 C 216.800 91.052,216.935 90.799,217.100 90.797 C 217.501 90.793,218.400 88.819,218.400 87.944 C 218.400 87.561,218.580 87.136,218.800 87.000 C 219.057 86.841,219.200 80.263,219.200 68.576 C 219.200 56.725,219.061 50.400,218.800 50.400 C 218.580 50.400,218.400 49.860,218.400 49.200 C 218.400 48.540,218.220 48.000,218.000 48.000 C 217.780 48.000,217.600 47.640,217.600 47.200 C 217.600 46.760,217.420 46.400,217.200 46.400 C 216.980 46.400,216.800 46.130,216.800 45.800 C 216.800 45.470,216.620 45.200,216.400 45.200 C 216.180 45.200,215.995 44.975,215.988 44.700 C 215.981 44.425,215.429 43.750,214.760 43.200 C 214.092 42.650,212.933 41.615,212.186 40.900 C 211.438 40.185,210.551 39.600,210.213 39.600 C 209.876 39.600,209.600 39.420,209.600 39.200 C 209.600 38.980,209.240 38.800,208.800 38.800 C 208.360 38.800,208.000 38.620,208.000 38.400 C 208.000 38.180,207.561 38.000,207.024 38.000 C 206.487 38.000,205.936 37.820,205.800 37.600 C 205.654 37.364,203.270 37.200,200.000 37.200 C 196.730 37.200,194.346 37.364,194.200 37.600 M193.600 125.065 C 189.650 126.575,183.200 131.773,183.200 133.446 C 183.200 133.751,183.020 134.000,182.800 134.000 C 182.580 134.000,182.400 134.360,182.400 134.800 C 182.400 135.240,182.220 135.600,182.000 135.600 C 181.780 135.600,181.600 136.140,181.600 136.800 C 181.600 137.460,181.420 138.000,181.200 138.000 C 180.935 138.000,180.800 158.933,180.800 200.000 C 180.800 241.067,180.935 262.000,181.200 262.000 C 181.420 262.000,181.600 262.540,181.600 263.200 C 181.600 263.860,181.780 264.400,182.000 264.400 C 182.220 264.400,182.400 264.760,182.400 265.200 C 182.400 265.640,182.580 266.000,182.800 266.000 C 183.020 266.000,183.200 266.249,183.200 266.554 C 183.200 267.628,188.258 272.340,190.851 273.681 L 193.400 275.000 200.000 275.000 L 206.600 275.000 209.149 273.681 C 211.742 272.340,216.800 267.628,216.800 266.554 C 216.800 266.249,216.980 266.000,217.200 266.000 C 217.420 266.000,217.600 265.640,217.600 265.200 C 217.600 264.760,217.780 264.400,218.000 264.400 C 218.220 264.400,218.400 263.860,218.400 263.200 C 218.400 262.540,218.580 262.000,218.800 262.000 C 219.065 262.000,219.200 241.067,219.200 200.000 C 219.200 158.933,219.065 138.000,218.800 138.000 C 218.580 138.000,218.400 137.460,218.400 136.800 C 218.400 136.140,218.220 135.600,218.000 135.600 C 217.780 135.600,217.600 135.240,217.600 134.800 C 217.600 134.360,217.420 134.000,217.200 134.000 C 216.980 134.000,216.800 133.751,216.800 133.446 C 216.800 132.372,211.742 127.660,209.149 126.319 C 206.647 125.025,195.960 124.163,193.600 125.065 M194.200 300.000 C 194.064 300.220,193.513 300.400,192.976 300.400 C 192.439 300.400,192.000 300.580,192.000 300.800 C 192.000 301.020,191.640 301.200,191.200 301.200 C 190.760 301.200,190.400 301.380,190.400 301.600 C 190.400 301.820,190.118 302.000,189.773 302.000 C 189.003 302.000,183.200 307.864,183.200 308.641 C 183.200 308.948,183.065 309.201,182.900 309.203 C 182.499 309.207,181.600 311.181,181.600 312.056 C 181.600 312.439,181.420 312.864,181.200 313.000 C 180.943 313.159,180.800 319.737,180.800 331.424 C 180.800 343.275,180.939 349.600,181.200 349.600 C 181.420 349.600,181.600 350.140,181.600 350.800 C 181.600 351.460,181.780 352.000,182.000 352.000 C 182.220 352.000,182.400 352.360,182.400 352.800 C 182.400 353.240,182.580 353.600,182.800 353.600 C 183.020 353.600,183.200 353.870,183.200 354.200 C 183.200 354.530,183.380 354.800,183.600 354.800 C 183.820 354.800,184.005 355.025,184.012 355.300 C 184.019 355.575,184.571 356.250,185.240 356.800 C 185.908 357.350,187.067 358.385,187.814 359.100 C 188.562 359.815,189.449 360.400,189.787 360.400 C 190.124 360.400,190.400 360.580,190.400 360.800 C 190.400 361.020,190.760 361.200,191.200 361.200 C 191.640 361.200,192.000 361.380,192.000 361.600 C 192.000 361.820,192.439 362.000,192.976 362.000 C 193.513 362.000,194.064 362.180,194.200 362.400 C 194.346 362.636,196.730 362.800,200.000 362.800 C 203.270 362.800,205.654 362.636,205.800 362.400 C 205.936 362.180,206.487 362.000,207.024 362.000 C 207.561 362.000,208.000 361.820,208.000 361.600 C 208.000 361.380,208.360 361.200,208.800 361.200 C 209.240 361.200,209.600 361.020,209.600 360.800 C 209.600 360.580,209.876 360.400,210.213 360.400 C 210.551 360.400,211.438 359.815,212.186 359.100 C 212.933 358.385,214.092 357.350,214.760 356.800 C 215.429 356.250,215.981 355.575,215.988 355.300 C 215.995 355.025,216.180 354.800,216.400 354.800 C 216.620 354.800,216.800 354.530,216.800 354.200 C 216.800 353.870,216.980 353.600,217.200 353.600 C 217.420 353.600,217.600 353.240,217.600 352.800 C 217.600 352.360,217.780 352.000,218.000 352.000 C 218.220 352.000,218.400 351.460,218.400 350.800 C 218.400 350.140,218.580 349.600,218.800 349.600 C 219.061 349.600,219.200 343.275,219.200 331.424 C 219.200 319.737,219.057 313.159,218.800 313.000 C 218.580 312.864,218.400 312.439,218.400 312.056 C 218.400 311.181,217.501 309.207,217.100 309.203 C 216.935 309.201,216.800 308.948,216.800 308.641 C 216.800 307.864,210.997 302.000,210.227 302.000 C 209.882 302.000,209.600 301.820,209.600 301.600 C 209.600 301.380,209.240 301.200,208.800 301.200 C 208.360 301.200,208.000 301.020,208.000 300.800 C 208.000 300.580,207.561 300.400,207.024 300.400 C 206.487 300.400,205.936 300.220,205.800 300.000 C 205.654 299.764,203.270 299.600,200.000 299.600 C 196.730 299.600,194.346 299.764,194.200 300.000 " stroke="none" fill="#fcbc04" fill-rule="evenodd"></path><path id="path2" d="M50.400 168.800 C 50.400 169.020,49.860 169.200,49.200 169.200 C 48.540 169.200,48.000 169.380,48.000 169.600 C 48.000 169.820,47.640 170.000,47.200 170.000 C 46.760 170.000,46.400 170.180,46.400 170.400 C 46.400 170.620,46.130 170.800,45.800 170.800 C 45.470 170.800,45.200 170.980,45.200 171.200 C 45.200 171.420,44.975 171.605,44.700 171.612 C 44.425 171.619,43.750 172.171,43.200 172.840 C 42.650 173.508,41.615 174.667,40.900 175.414 C 40.185 176.162,39.600 176.959,39.600 177.187 C 39.600 177.414,39.420 177.600,39.200 177.600 C 38.980 177.600,38.800 177.960,38.800 178.400 C 38.800 178.840,38.620 179.200,38.400 179.200 C 38.180 179.200,38.000 179.740,38.000 180.400 C 38.000 181.060,37.820 181.600,37.600 181.600 C 37.339 181.600,37.200 188.000,37.200 200.000 C 37.200 212.000,37.339 218.400,37.600 218.400 C 37.820 218.400,38.000 218.940,38.000 219.600 C 38.000 220.260,38.180 220.800,38.400 220.800 C 38.620 220.800,38.800 221.160,38.800 221.600 C 38.800 222.040,38.980 222.400,39.200 222.400 C 39.420 222.400,39.600 222.586,39.600 222.813 C 39.600 223.041,40.185 223.836,40.900 224.580 C 41.615 225.324,42.692 226.488,43.294 227.167 C 43.895 227.845,44.570 228.400,44.794 228.400 C 45.017 228.400,45.200 228.580,45.200 228.800 C 45.200 229.020,45.470 229.200,45.800 229.200 C 46.130 229.200,46.400 229.380,46.400 229.600 C 46.400 229.820,46.760 230.000,47.200 230.000 C 47.640 230.000,48.000 230.180,48.000 230.400 C 48.000 230.620,48.540 230.800,49.200 230.800 C 49.860 230.800,50.400 230.980,50.400 231.200 C 50.400 231.448,52.600 231.600,56.200 231.600 C 59.800 231.600,62.000 231.448,62.000 231.200 C 62.000 230.980,62.540 230.800,63.200 230.800 C 63.860 230.800,64.400 230.620,64.400 230.400 C 64.400 230.180,64.760 230.000,65.200 230.000 C 65.640 230.000,66.000 229.832,66.000 229.627 C 66.000 229.422,66.372 229.136,66.827 228.992 C 67.281 228.847,68.586 227.780,69.727 226.620 C 75.419 220.829,75.181 221.992,75.181 200.000 L 75.181 181.800 74.195 179.402 C 73.653 178.082,73.027 176.942,72.805 176.868 C 72.582 176.794,72.400 176.565,72.400 176.359 C 72.400 175.735,67.258 170.800,66.607 170.800 C 66.273 170.800,66.000 170.620,66.000 170.400 C 66.000 170.180,65.640 170.000,65.200 170.000 C 64.760 170.000,64.400 169.820,64.400 169.600 C 64.400 169.380,63.860 169.200,63.200 169.200 C 62.540 169.200,62.000 169.020,62.000 168.800 C 62.000 168.552,59.800 168.400,56.200 168.400 C 52.600 168.400,50.400 168.552,50.400 168.800 M338.000 168.800 C 338.000 169.020,337.561 169.200,337.024 169.200 C 336.487 169.200,335.936 169.380,335.800 169.600 C 335.664 169.820,335.203 170.000,334.776 170.000 C 334.349 170.000,334.000 170.180,334.000 170.400 C 334.000 170.620,333.751 170.800,333.446 170.800 C 332.791 170.800,327.600 175.745,327.600 176.369 C 327.600 176.606,327.441 176.800,327.246 176.800 C 326.768 176.800,325.522 179.483,325.454 180.657 C 325.424 181.175,325.265 181.600,325.100 181.600 C 324.730 181.600,324.696 217.763,325.066 218.133 C 325.212 218.279,325.379 218.839,325.436 219.376 C 325.841 223.173,333.722 230.800,337.241 230.800 C 337.658 230.800,338.000 230.980,338.000 231.200 C 338.000 231.448,340.200 231.600,343.800 231.600 C 347.400 231.600,349.600 231.448,349.600 231.200 C 349.600 230.980,350.140 230.800,350.800 230.800 C 351.460 230.800,352.000 230.620,352.000 230.400 C 352.000 230.180,352.360 230.000,352.800 230.000 C 353.240 230.000,353.600 229.864,353.600 229.698 C 353.600 229.531,354.141 229.156,354.802 228.863 C 355.464 228.570,355.903 228.166,355.779 227.965 C 355.654 227.764,355.794 227.600,356.088 227.600 C 356.383 227.600,356.888 227.214,357.212 226.742 C 357.535 226.270,358.385 225.286,359.100 224.555 C 359.815 223.825,360.400 223.041,360.400 222.813 C 360.400 222.586,360.580 222.400,360.800 222.400 C 361.020 222.400,361.200 221.939,361.200 221.376 C 361.200 220.796,361.373 220.460,361.600 220.600 C 361.833 220.744,362.000 220.337,362.000 219.624 C 362.000 218.951,362.180 218.400,362.400 218.400 C 362.661 218.400,362.800 212.000,362.800 200.000 C 362.800 188.000,362.661 181.600,362.400 181.600 C 362.180 181.600,362.000 181.049,362.000 180.376 C 362.000 179.663,361.833 179.256,361.600 179.400 C 361.373 179.540,361.200 179.204,361.200 178.624 C 361.200 178.061,361.020 177.600,360.800 177.600 C 360.580 177.600,360.400 177.415,360.400 177.189 C 360.400 176.419,354.905 170.800,354.152 170.800 C 353.848 170.800,353.600 170.620,353.600 170.400 C 353.600 170.180,353.240 170.000,352.800 170.000 C 352.360 170.000,352.000 169.820,352.000 169.600 C 352.000 169.380,351.460 169.200,350.800 169.200 C 350.140 169.200,349.600 169.020,349.600 168.800 C 349.600 168.552,347.400 168.400,343.800 168.400 C 340.200 168.400,338.000 168.552,338.000 168.800 " stroke="none" fill="#2474e8" fill-rule="evenodd"></path><path id="path3" d="M122.600 100.000 C 122.464 100.220,121.823 100.400,121.176 100.400 C 120.529 100.400,120.000 100.538,120.000 100.706 C 120.000 100.874,119.288 101.320,118.417 101.697 C 116.468 102.542,111.200 107.729,111.200 108.805 C 111.200 109.022,110.990 109.200,110.733 109.200 C 110.477 109.200,110.380 109.314,110.519 109.453 C 110.658 109.591,110.508 110.081,110.186 110.542 C 109.864 111.002,109.600 111.777,109.600 112.265 C 109.600 112.753,109.421 113.263,109.202 113.399 C 108.190 114.024,109.027 201.600,110.045 201.600 C 110.240 201.600,110.400 201.960,110.400 202.400 C 110.400 202.840,110.580 203.200,110.800 203.200 C 111.020 203.200,111.200 203.372,111.200 203.582 C 111.200 203.792,111.650 204.628,112.200 205.438 C 112.750 206.249,113.200 206.817,113.200 206.702 C 113.200 206.587,114.122 207.372,115.248 208.446 C 116.375 209.521,117.545 210.400,117.848 210.400 C 118.152 210.400,118.400 210.580,118.400 210.800 C 118.400 211.020,118.749 211.200,119.176 211.200 C 119.603 211.200,120.064 211.380,120.200 211.600 C 120.336 211.820,120.887 212.000,121.424 212.000 C 121.961 212.000,122.400 212.180,122.400 212.400 C 122.400 212.648,124.525 212.800,127.976 212.800 C 131.263 212.800,133.654 212.636,133.800 212.400 C 133.936 212.180,134.577 212.000,135.224 212.000 C 135.871 212.000,136.400 211.820,136.400 211.600 C 136.400 211.380,136.771 211.200,137.224 211.200 C 137.677 211.200,137.960 211.058,137.852 210.885 C 137.745 210.712,138.230 210.318,138.929 210.009 C 140.413 209.355,141.266 208.599,140.914 208.248 C 140.778 208.111,140.858 208.000,141.091 208.000 C 141.668 208.000,144.000 205.787,144.000 205.240 C 144.000 204.998,144.180 204.800,144.400 204.800 C 144.620 204.800,144.800 204.530,144.800 204.200 C 144.800 203.870,144.980 203.600,145.200 203.600 C 145.420 203.600,145.600 203.240,145.600 202.800 C 145.600 202.360,145.780 202.000,146.000 202.000 C 146.220 202.000,146.400 201.471,146.400 200.824 C 146.400 200.177,146.580 199.536,146.800 199.400 C 147.063 199.238,147.200 184.329,147.200 155.976 C 147.200 127.459,147.064 112.800,146.800 112.800 C 146.580 112.800,146.400 112.476,146.400 112.080 C 146.400 111.186,145.506 109.207,145.100 109.203 C 144.935 109.201,144.800 108.925,144.800 108.589 C 144.800 108.254,144.035 107.201,143.100 106.249 C 142.165 105.298,141.135 104.133,140.812 103.660 C 140.488 103.187,139.993 102.800,139.712 102.800 C 139.430 102.800,139.200 102.620,139.200 102.400 C 139.200 102.180,138.829 102.000,138.376 102.000 C 137.923 102.000,137.664 101.820,137.800 101.600 C 137.941 101.372,137.596 101.200,137.000 101.200 C 136.404 101.200,136.059 101.028,136.200 100.800 C 136.344 100.567,135.937 100.400,135.224 100.400 C 134.551 100.400,134.000 100.220,134.000 100.000 C 134.000 99.752,131.875 99.600,128.424 99.600 C 125.137 99.600,122.746 99.764,122.600 100.000 M122.612 243.581 C 122.469 243.811,121.958 244.006,121.476 244.013 C 120.994 244.020,120.258 244.284,119.841 244.600 C 119.424 244.916,118.929 245.080,118.741 244.964 C 118.553 244.848,118.400 244.931,118.400 245.149 C 118.400 245.368,118.027 245.664,117.571 245.809 C 116.496 246.151,111.751 250.896,111.409 251.971 C 111.264 252.427,110.978 252.800,110.773 252.800 C 110.568 252.800,110.400 253.124,110.400 253.520 C 110.400 253.916,110.184 254.456,109.920 254.720 C 109.656 254.984,109.568 255.200,109.725 255.200 C 109.882 255.200,109.742 255.842,109.414 256.628 C 108.529 258.747,108.529 291.253,109.414 293.372 C 109.742 294.158,109.882 294.800,109.725 294.800 C 109.568 294.800,109.656 295.016,109.920 295.280 C 110.184 295.544,110.400 296.084,110.400 296.480 C 110.400 296.876,110.568 297.200,110.773 297.200 C 110.978 297.200,111.264 297.573,111.409 298.029 C 111.751 299.104,116.496 303.849,117.571 304.191 C 118.027 304.336,118.400 304.632,118.400 304.851 C 118.400 305.069,118.553 305.152,118.741 305.036 C 118.929 304.920,119.424 305.084,119.841 305.400 C 120.258 305.716,120.994 305.980,121.476 305.987 C 121.958 305.994,122.457 306.169,122.585 306.376 C 122.884 306.859,133.242 306.863,133.824 306.380 C 134.065 306.180,134.609 305.950,135.031 305.869 C 136.363 305.615,137.813 304.907,138.365 304.242 C 138.658 303.889,139.095 303.600,139.335 303.600 C 139.979 303.600,144.800 298.471,144.800 297.786 C 144.800 297.464,144.980 297.200,145.200 297.200 C 145.420 297.200,145.600 296.851,145.600 296.424 C 145.600 295.997,145.780 295.536,146.000 295.400 C 146.220 295.264,146.400 294.713,146.400 294.176 C 146.400 293.639,146.580 293.200,146.800 293.200 C 147.061 293.200,147.200 286.867,147.200 275.000 C 147.200 263.133,147.061 256.800,146.800 256.800 C 146.580 256.800,146.400 256.361,146.400 255.824 C 146.400 255.287,146.220 254.736,146.000 254.600 C 145.780 254.464,145.600 254.003,145.600 253.576 C 145.600 253.149,145.420 252.800,145.200 252.800 C 144.980 252.800,144.800 252.526,144.800 252.192 C 144.800 251.390,139.655 246.195,138.500 245.830 C 138.005 245.674,137.600 245.399,137.600 245.220 C 137.600 244.904,136.622 244.497,135.031 244.151 C 134.609 244.059,134.069 243.826,133.831 243.633 C 133.197 243.116,122.928 243.069,122.612 243.581 " stroke="none" fill="#ec4434" fill-rule="evenodd"></path><path id="path4" d="" stroke="none" fill="#b88098" fill-rule="evenodd"></path></g></svg>