<svg id="svg" version="1.1" xmlns="http://www.w3.org/2000/svg" xmlns:xlink="http://www.w3.org/1999/xlink" width="400" height="400" viewBox="0, 0, 400,400"><g id="svgg"><path id="path0" d="M188.000 98.214 C 179.052 99.316,170.519 101.331,164.800 103.694 C 164.250 103.921,163.395 104.263,162.900 104.454 C 160.565 105.353,160.070 105.557,158.200 106.395 C 141.712 113.784,126.133 126.932,115.458 142.468 C 113.996 144.596,112.800 146.531,112.800 146.768 C 112.800 147.006,112.665 147.201,112.500 147.203 C 112.335 147.205,111.999 147.610,111.754 148.103 C 110.091 151.450,108.555 154.220,108.300 154.333 C 108.135 154.407,108.000 154.643,108.000 154.859 C 108.000 155.074,107.474 156.364,106.831 157.725 C 104.410 162.852,101.194 172.710,100.053 178.500 C 98.306 187.367,98.220 188.383,98.220 200.000 C 98.220 211.572,98.326 212.834,100.029 221.400 C 101.703 229.823,108.641 248.210,110.821 250.000 C 110.954 250.110,111.319 250.785,111.630 251.500 C 111.941 252.215,112.331 252.800,112.498 252.800 C 112.664 252.800,112.800 252.996,112.800 253.235 C 112.800 253.834,116.386 259.033,119.949 263.600 C 128.264 274.258,144.462 287.422,155.200 292.249 C 155.750 292.496,157.100 293.104,158.200 293.600 C 159.300 294.096,160.560 294.634,161.000 294.797 C 161.898 295.129,163.308 295.689,164.800 296.307 C 183.797 304.168,216.758 304.204,235.100 296.384 C 235.933 296.029,236.449 295.819,238.900 294.841 C 242.074 293.574,246.919 291.289,249.000 290.078 C 249.660 289.694,251.100 288.858,252.200 288.221 C 270.616 277.550,287.368 258.178,294.851 238.900 C 295.043 238.405,295.362 237.595,295.560 237.100 C 295.757 236.605,296.136 235.570,296.400 234.800 C 296.664 234.030,297.034 233.040,297.222 232.600 C 303.152 218.677,304.001 192.713,299.134 174.110 C 298.456 171.519,297.812 168.992,297.703 168.494 C 297.594 167.996,297.346 167.490,297.152 167.370 C 296.959 167.251,296.800 166.801,296.800 166.371 C 296.800 165.941,296.641 165.277,296.447 164.895 C 296.252 164.513,295.916 163.750,295.700 163.200 C 294.390 159.868,293.169 157.118,291.705 154.200 C 290.761 152.318,290.204 151.293,288.012 147.400 C 280.827 134.636,265.519 119.314,252.688 112.043 C 251.980 111.642,250.590 110.840,249.600 110.261 C 247.026 108.757,241.954 106.341,239.000 105.213 C 238.001 104.831,236.505 104.233,235.200 103.694 C 233.228 102.879,229.080 101.605,224.400 100.376 C 214.793 97.853,198.696 96.896,188.000 98.214 M227.754 125.232 C 228.659 125.469,230.120 125.858,231.000 126.097 C 238.318 128.080,245.666 134.124,249.360 141.200 C 252.681 147.558,253.184 151.022,253.193 167.572 C 253.201 181.532,253.260 182.013,255.362 185.200 C 257.716 188.768,261.291 190.939,265.400 191.296 L 266.600 191.400 266.708 199.854 C 266.799 207.034,266.726 208.343,266.221 208.537 C 264.507 209.194,254.875 206.675,252.000 204.817 C 251.450 204.462,250.475 203.908,249.834 203.586 C 246.742 202.034,241.413 195.945,239.163 191.394 C 236.327 185.659,236.309 185.528,236.041 168.200 L 235.800 152.600 234.555 150.000 C 229.487 139.420,215.010 139.335,209.976 149.857 L 208.800 152.314 208.786 198.657 C 208.771 247.794,208.694 249.974,206.807 254.600 C 206.628 255.040,206.249 256.013,205.966 256.763 C 198.013 277.812,167.223 281.504,153.366 263.070 C 147.760 255.613,146.818 251.238,146.807 232.628 C 146.799 218.453,146.743 217.992,144.638 214.800 C 141.789 210.482,138.424 208.816,132.533 208.806 C 127.128 208.797,127.600 209.640,127.600 200.000 C 127.600 190.501,127.290 191.200,131.500 191.200 C 136.980 191.200,144.732 193.071,148.000 195.183 C 148.550 195.538,149.525 196.092,150.166 196.414 C 153.258 197.966,158.587 204.055,160.837 208.606 C 163.673 214.341,163.691 214.472,163.959 231.800 L 164.200 247.400 165.441 250.000 C 170.549 260.704,185.459 260.559,190.235 249.760 L 191.200 247.577 191.214 201.289 C 191.230 148.426,191.159 149.766,194.357 142.657 C 199.923 130.286,215.678 122.066,227.754 125.232 " stroke="none" fill="#29d982" fill-rule="evenodd"></path><path id="path1" d="M188.800 81.407 C 176.843 82.612,166.242 85.178,155.000 89.588 C 154.117 89.935,149.394 92.105,147.200 93.172 C 141.113 96.134,129.035 103.729,126.800 106.001 C 126.690 106.113,125.970 106.676,125.200 107.251 C 124.430 107.827,123.080 108.972,122.200 109.796 C 121.320 110.621,119.498 112.172,118.152 113.243 C 116.805 114.315,115.034 115.958,114.216 116.896 C 113.398 117.833,111.574 119.810,110.164 121.289 C 108.754 122.768,107.600 124.075,107.600 124.193 C 107.600 124.311,107.105 124.970,106.500 125.659 C 104.682 127.729,104.615 127.810,104.200 128.457 C 102.366 131.314,101.482 132.470,100.985 132.661 C 100.666 132.784,100.493 133.026,100.600 133.200 C 100.846 133.598,97.226 139.200,96.723 139.200 C 96.519 139.200,96.460 139.373,96.590 139.584 C 96.805 139.932,96.138 141.509,95.568 142.000 C 95.440 142.110,95.081 142.785,94.770 143.500 C 94.459 144.215,94.069 144.800,93.902 144.800 C 93.736 144.800,93.600 145.160,93.600 145.600 C 93.600 146.040,93.420 146.400,93.200 146.400 C 92.980 146.400,92.800 146.760,92.800 147.200 C 92.800 148.086,92.183 148.283,91.860 147.500 C 91.747 147.225,91.754 147.585,91.877 148.300 C 92.019 149.128,91.937 149.600,91.650 149.600 C 91.403 149.600,91.200 150.050,91.200 150.600 C 91.200 151.150,91.020 151.600,90.800 151.600 C 90.580 151.600,90.400 151.960,90.400 152.400 C 90.400 152.840,90.220 153.200,90.000 153.200 C 89.780 153.200,89.600 153.650,89.600 154.200 C 89.600 154.750,89.420 155.200,89.200 155.200 C 88.980 155.200,88.800 155.661,88.800 156.224 C 88.800 156.804,88.627 157.140,88.400 157.000 C 88.167 156.856,88.000 157.263,88.000 157.976 C 88.000 158.649,87.820 159.200,87.600 159.200 C 87.380 159.200,87.200 159.650,87.200 160.200 C 87.200 160.750,87.020 161.200,86.800 161.200 C 86.580 161.200,86.400 161.740,86.400 162.400 C 86.400 163.060,86.200 163.600,85.957 163.600 C 85.687 163.600,85.609 163.980,85.757 164.571 C 85.913 165.192,85.775 165.768,85.373 166.170 C 84.991 166.552,84.845 167.111,85.000 167.601 C 85.173 168.146,85.042 168.486,84.594 168.658 C 84.082 168.854,83.989 169.218,84.185 170.261 C 84.380 171.299,84.287 171.668,83.785 171.861 C 83.287 172.052,83.191 172.424,83.379 173.428 C 83.568 174.439,83.442 174.916,82.834 175.483 C 82.275 176.003,82.152 176.394,82.415 176.810 C 82.976 177.698,82.874 179.040,82.203 179.598 C 81.772 179.955,81.674 180.521,81.851 181.628 C 82.112 183.260,81.769 185.351,81.288 185.055 C 80.812 184.762,80.744 203.833,81.203 209.000 C 82.240 220.680,85.393 234.863,88.762 243.000 C 88.944 243.440,89.279 244.250,89.507 244.800 C 92.812 252.775,101.622 268.565,103.567 270.000 C 103.717 270.110,104.271 270.830,104.800 271.600 C 105.329 272.370,105.860 273.090,105.981 273.200 C 106.101 273.310,106.828 274.210,107.596 275.200 C 111.229 279.884,120.116 288.771,124.800 292.404 C 125.790 293.172,126.690 293.890,126.800 294.001 C 127.504 294.708,131.948 297.866,134.954 299.794 C 138.852 302.295,140.120 303.039,144.000 305.104 C 152.278 309.508,156.083 311.069,166.600 314.377 C 189.507 321.584,219.753 320.326,242.800 311.208 C 253.319 307.047,268.706 298.279,273.535 293.695 C 273.829 293.416,274.726 292.696,275.530 292.094 C 279.364 289.222,289.222 279.364,292.094 275.530 C 292.696 274.726,293.416 273.829,293.695 273.535 C 300.025 266.866,310.914 245.993,314.007 234.600 C 318.604 217.663,319.934 204.848,318.613 190.200 C 317.775 180.906,316.845 175.900,314.006 165.400 C 311.881 157.544,305.904 144.523,300.602 136.200 C 298.883 133.501,294.471 127.282,293.695 126.465 C 293.416 126.171,292.696 125.274,292.094 124.470 C 289.162 120.556,279.574 110.987,275.200 107.610 C 274.210 106.846,273.310 106.117,273.200 105.991 C 273.090 105.865,272.370 105.329,271.600 104.800 C 270.830 104.271,270.110 103.717,270.000 103.569 C 269.612 103.046,260.560 97.319,257.400 95.597 C 253.912 93.696,252.397 92.939,249.500 91.647 C 248.455 91.181,246.835 90.457,245.900 90.038 C 230.106 82.959,207.420 79.530,188.800 81.407 M207.400 97.218 C 213.898 97.909,218.120 98.464,219.400 98.797 C 220.060 98.968,221.680 99.322,223.000 99.584 C 225.972 100.174,238.358 104.143,240.800 105.288 C 272.180 119.999,294.410 146.740,300.416 177.000 C 300.678 178.320,301.032 179.940,301.203 180.600 C 301.568 182.006,302.182 186.731,302.844 193.243 C 303.553 200.204,302.607 213.351,300.849 221.000 C 300.646 221.880,300.281 223.580,300.036 224.778 C 297.046 239.418,287.092 257.517,274.421 271.351 C 262.442 284.430,240.199 297.002,223.000 300.416 C 221.680 300.678,220.060 301.032,219.400 301.203 C 216.561 301.940,204.295 303.208,200.000 303.208 C 195.065 303.208,184.970 302.085,179.600 300.939 C 178.170 300.634,176.110 300.206,175.022 299.988 C 152.819 295.534,125.213 275.526,112.980 255.022 C 112.331 253.935,111.309 252.225,110.709 251.222 C 99.598 232.656,94.898 208.317,98.037 185.600 C 98.687 180.902,99.651 176.502,101.281 170.800 C 107.304 149.730,121.328 129.895,139.489 116.758 C 144.218 113.338,148.336 110.733,151.777 108.986 C 153.110 108.310,154.560 107.557,155.000 107.314 C 158.788 105.223,170.696 100.880,175.022 100.012 C 176.110 99.794,178.170 99.366,179.600 99.061 C 188.598 97.141,199.735 96.402,207.400 97.218 M217.800 125.578 C 217.140 125.747,215.610 126.118,214.400 126.403 C 213.190 126.689,211.930 127.060,211.600 127.227 C 211.270 127.395,210.280 127.845,209.400 128.226 C 202.430 131.245,196.284 138.080,193.598 145.800 C 193.445 146.240,193.074 147.230,192.774 148.000 C 192.327 149.145,192.189 158.365,192.014 198.600 L 191.800 247.800 190.493 250.472 C 186.056 259.543,174.993 261.360,167.785 254.201 C 163.829 250.274,163.882 250.548,163.570 232.200 C 163.306 216.645,163.184 215.187,161.946 212.705 C 161.756 212.323,161.600 211.834,161.600 211.617 C 161.600 206.902,151.786 196.923,144.400 194.127 C 140.211 192.541,138.911 192.317,133.568 192.258 L 128.200 192.200 128.200 200.000 L 128.200 207.800 132.600 208.090 C 135.020 208.250,137.450 208.589,138.000 208.844 C 138.550 209.099,139.434 209.508,139.965 209.754 C 142.012 210.700,144.786 213.674,146.088 216.316 L 147.400 218.981 147.636 234.590 C 147.888 251.266,147.989 252.134,150.242 257.000 C 153.145 263.269,159.819 269.924,165.264 271.977 C 165.999 272.254,166.960 272.626,167.400 272.804 C 171.598 274.501,178.589 275.284,181.954 274.435 C 182.749 274.234,184.390 273.851,185.600 273.584 C 194.510 271.620,202.814 263.984,206.243 254.600 C 207.773 250.414,207.722 252.004,207.965 201.000 C 208.135 165.470,208.326 151.578,208.653 151.000 C 208.903 150.560,209.353 149.660,209.653 149.000 C 211.376 145.218,217.839 141.200,222.200 141.200 C 226.606 141.200,232.982 145.169,234.747 149.010 C 235.047 149.665,235.492 150.560,235.735 151.000 C 236.023 151.523,236.261 157.340,236.422 167.800 C 236.573 177.598,236.833 184.188,237.093 184.800 C 237.326 185.350,237.754 186.610,238.045 187.600 C 241.097 198.008,252.862 207.259,263.600 207.694 L 266.200 207.800 266.309 200.252 C 266.429 191.936,266.345 191.600,264.146 191.600 C 263.400 191.600,262.477 191.441,262.095 191.247 C 261.713 191.052,260.876 190.647,260.235 190.347 C 257.988 189.293,255.258 186.415,253.912 183.684 L 252.600 181.020 252.366 165.410 C 252.089 146.946,251.873 145.784,247.457 139.000 C 241.180 129.358,227.411 123.127,217.800 125.578 " stroke="none" fill="#040705" fill-rule="evenodd"></path><path id="path2" d="M208.609 32.786 C 208.458 33.031,206.563 33.200,203.976 33.200 C 201.325 33.200,199.600 33.358,199.600 33.600 C 199.600 33.825,198.475 34.000,197.024 34.000 C 195.607 34.000,194.336 34.180,194.200 34.400 C 194.064 34.620,192.963 34.800,191.753 34.800 C 190.388 34.800,189.647 34.952,189.800 35.200 C 189.951 35.444,189.337 35.600,188.224 35.600 C 187.221 35.600,186.400 35.780,186.400 36.000 C 186.400 36.220,185.601 36.400,184.624 36.400 C 183.647 36.400,182.736 36.580,182.600 36.800 C 182.464 37.020,181.823 37.200,181.176 37.200 C 180.529 37.200,180.000 37.380,180.000 37.600 C 180.000 37.820,179.370 38.000,178.600 38.000 C 177.830 38.000,177.200 38.180,177.200 38.400 C 177.200 38.620,176.660 38.800,176.000 38.800 C 175.340 38.800,174.800 38.980,174.800 39.200 C 174.800 39.420,174.260 39.600,173.600 39.600 C 172.940 39.600,172.400 39.780,172.400 40.000 C 172.400 40.220,171.860 40.400,171.200 40.400 C 170.540 40.400,170.000 40.580,170.000 40.800 C 170.000 41.020,169.661 41.200,169.246 41.200 C 168.831 41.200,167.976 41.469,167.346 41.798 C 166.716 42.126,165.896 42.396,165.524 42.398 C 165.152 42.399,164.736 42.580,164.600 42.800 C 164.464 43.020,164.091 43.200,163.772 43.200 C 163.033 43.200,159.444 44.858,159.267 45.281 C 159.193 45.457,158.788 45.600,158.367 45.600 C 157.945 45.600,157.600 45.780,157.600 46.000 C 157.600 46.220,157.317 46.400,156.971 46.400 C 156.626 46.400,156.064 46.679,155.723 47.020 C 155.382 47.360,154.588 47.742,153.958 47.868 C 153.328 47.994,152.911 48.255,153.030 48.449 C 153.150 48.642,152.911 48.800,152.499 48.800 C 152.088 48.800,151.364 49.160,150.892 49.600 C 150.420 50.040,149.838 50.400,149.600 50.400 C 149.362 50.400,148.780 50.760,148.308 51.200 C 147.836 51.640,147.213 52.000,146.925 52.000 C 146.636 52.000,146.400 52.136,146.400 52.302 C 146.400 52.469,145.859 52.844,145.198 53.137 C 144.536 53.430,144.097 53.834,144.221 54.035 C 144.346 54.236,144.167 54.400,143.824 54.400 C 143.481 54.400,143.200 54.580,143.200 54.800 C 143.200 55.020,142.996 55.200,142.747 55.200 C 142.498 55.200,142.003 55.526,141.647 55.925 C 141.291 56.324,140.182 57.207,139.182 57.888 C 138.183 58.568,136.790 59.637,136.087 60.262 C 135.385 60.888,134.125 61.933,133.289 62.584 C 132.453 63.236,131.236 64.453,130.584 65.289 C 129.933 66.125,128.618 67.662,127.661 68.705 C 126.705 69.747,125.644 71.140,125.302 71.800 C 124.961 72.460,124.348 73.291,123.941 73.647 C 123.533 74.003,123.200 74.588,123.200 74.947 C 123.200 75.306,123.020 75.600,122.800 75.600 C 122.580 75.600,122.400 75.870,122.400 76.200 C 122.400 76.530,122.220 76.800,122.000 76.800 C 121.780 76.800,121.600 77.070,121.600 77.400 C 121.600 77.730,121.420 78.000,121.200 78.000 C 120.980 78.000,120.800 78.270,120.800 78.600 C 120.800 78.930,120.609 79.200,120.376 79.200 C 120.143 79.200,120.055 79.365,120.180 79.568 C 120.305 79.770,120.136 80.207,119.804 80.539 C 119.472 80.871,119.200 81.415,119.200 81.748 C 119.200 82.081,119.020 82.464,118.800 82.600 C 118.580 82.736,118.400 83.276,118.400 83.800 C 118.400 84.324,118.220 84.864,118.000 85.000 C 117.780 85.136,117.600 85.676,117.600 86.200 C 117.600 86.724,117.420 87.264,117.200 87.400 C 116.980 87.536,116.800 88.087,116.800 88.624 C 116.800 89.161,116.620 89.600,116.400 89.600 C 116.180 89.600,116.000 90.489,116.000 91.576 C 116.000 92.663,115.838 93.653,115.641 93.775 C 115.121 94.096,115.067 104.670,115.583 104.990 C 115.819 105.135,116.000 106.713,116.000 108.624 C 116.000 110.608,116.165 112.000,116.400 112.000 C 116.620 112.000,116.800 112.270,116.800 112.600 C 116.800 113.512,117.153 113.349,119.187 111.500 C 122.955 108.074,124.286 106.936,125.629 105.989 C 126.383 105.457,127.360 104.684,127.800 104.270 C 128.611 103.509,138.616 96.800,138.942 96.800 C 139.039 96.800,140.262 96.118,141.659 95.285 C 144.577 93.544,150.954 90.445,154.200 89.189 C 154.640 89.019,155.853 88.502,156.896 88.040 C 157.938 87.578,159.053 87.200,159.372 87.200 C 159.691 87.200,160.064 87.020,160.200 86.800 C 160.336 86.580,160.876 86.400,161.400 86.400 C 161.924 86.400,162.451 86.241,162.571 86.046 C 162.692 85.851,163.287 85.596,163.895 85.479 C 164.503 85.362,165.630 85.083,166.400 84.859 C 172.094 83.207,176.562 82.320,186.707 80.828 C 190.301 80.299,209.617 80.262,212.954 80.778 C 214.299 80.986,216.840 81.359,218.600 81.608 C 221.956 82.082,229.471 83.651,232.200 84.447 C 234.766 85.195,240.920 87.209,241.900 87.621 C 243.585 88.330,244.998 88.906,245.800 89.212 C 248.302 90.164,255.146 93.467,258.100 95.147 C 258.925 95.616,260.185 96.332,260.900 96.738 C 263.174 98.028,267.847 101.089,269.857 102.605 C 270.926 103.411,272.327 104.459,272.971 104.935 C 274.120 105.783,275.390 106.805,277.774 108.800 C 279.426 110.183,289.999 120.729,291.211 122.203 C 293.541 125.038,294.248 125.923,295.069 127.029 C 295.547 127.673,296.742 129.280,297.725 130.600 C 299.832 133.431,304.000 140.197,304.000 140.788 C 304.000 141.015,304.135 141.201,304.300 141.203 C 304.465 141.205,304.789 141.610,305.019 142.103 C 305.250 142.596,305.990 144.080,306.664 145.400 C 308.075 148.161,310.359 153.026,310.795 154.200 C 311.215 155.328,311.820 156.830,312.325 158.000 C 313.329 160.324,315.227 166.546,316.352 171.200 C 317.449 175.741,317.881 178.166,319.180 187.077 C 319.724 190.804,319.724 209.196,319.180 212.923 C 317.881 221.834,317.449 224.259,316.352 228.800 C 315.227 233.454,313.329 239.676,312.325 242.000 C 312.087 242.550,311.737 243.405,311.546 243.900 C 311.356 244.395,311.042 245.205,310.849 245.700 C 310.315 247.069,308.040 251.908,306.664 254.600 C 305.990 255.920,305.250 257.404,305.019 257.897 C 304.789 258.390,304.465 258.795,304.300 258.797 C 304.135 258.799,304.000 258.985,304.000 259.212 C 304.000 259.803,299.832 266.569,297.725 269.400 C 296.742 270.720,295.547 272.327,295.069 272.971 C 294.214 274.123,293.176 275.412,291.200 277.774 C 289.901 279.326,279.326 289.901,277.774 291.200 C 275.412 293.176,274.123 294.214,272.971 295.069 C 272.327 295.547,270.720 296.742,269.400 297.725 C 265.756 300.438,259.538 304.151,253.200 307.399 C 251.777 308.129,246.769 310.432,245.700 310.849 C 244.284 311.401,242.878 311.967,241.900 312.379 C 240.920 312.791,234.766 314.805,232.200 315.553 C 229.253 316.412,221.834 317.942,218.400 318.398 C 216.530 318.647,214.025 319.019,212.833 319.225 C 209.864 319.739,190.290 319.699,186.707 319.172 C 176.562 317.680,172.094 316.793,166.400 315.141 C 165.630 314.917,164.503 314.638,163.895 314.521 C 163.287 314.404,162.692 314.149,162.571 313.954 C 162.451 313.759,162.001 313.600,161.571 313.600 C 161.141 313.600,160.477 313.441,160.095 313.247 C 159.408 312.897,158.049 312.327,156.300 311.654 C 154.502 310.961,153.362 310.484,151.400 309.603 C 148.488 308.295,141.434 304.725,141.200 304.442 C 141.090 304.308,140.460 303.934,139.800 303.610 C 138.135 302.793,128.777 296.648,127.800 295.730 C 127.360 295.316,126.383 294.543,125.629 294.011 C 121.611 291.177,108.819 278.385,105.989 274.371 C 105.458 273.617,104.613 272.552,104.111 272.004 C 103.610 271.456,103.200 270.884,103.200 270.733 C 103.200 270.581,102.946 270.203,102.634 269.892 C 101.802 269.059,97.042 261.611,96.377 260.100 C 96.062 259.385,95.707 258.800,95.587 258.800 C 95.260 258.800,90.391 248.907,89.189 245.800 C 89.019 245.360,88.502 244.147,88.040 243.104 C 87.578 242.062,87.200 240.947,87.200 240.628 C 87.200 240.309,87.020 239.936,86.800 239.800 C 86.580 239.664,86.400 239.124,86.400 238.600 C 86.400 238.076,86.241 237.549,86.046 237.429 C 85.851 237.308,85.596 236.713,85.479 236.105 C 85.362 235.497,85.083 234.370,84.859 233.600 C 83.700 229.604,82.401 223.716,81.817 219.800 C 81.456 217.380,80.989 214.399,80.780 213.176 C 80.571 211.953,80.387 207.003,80.372 202.176 C 80.339 191.944,80.242 191.427,78.687 193.173 C 78.089 193.844,77.600 194.575,77.600 194.797 C 77.600 195.018,77.446 195.200,77.258 195.200 C 77.070 195.200,76.404 196.010,75.778 197.000 C 75.152 197.990,74.496 198.800,74.320 198.800 C 74.144 198.800,74.000 199.043,74.000 199.341 C 74.000 199.638,73.460 200.446,72.800 201.137 C 72.140 201.828,71.600 202.548,71.600 202.737 C 71.600 202.926,71.060 203.646,70.400 204.337 C 69.740 205.028,69.200 205.729,69.200 205.896 C 69.199 206.063,68.794 206.680,68.300 207.266 C 66.275 209.666,66.000 210.017,66.000 210.200 C 66.000 210.383,65.725 210.734,63.700 213.134 C 63.206 213.720,62.801 214.425,62.800 214.700 C 62.800 214.975,62.642 215.200,62.449 215.200 C 62.255 215.200,61.873 215.740,61.600 216.400 C 61.327 217.060,60.975 217.600,60.819 217.600 C 60.663 217.600,60.280 218.095,59.968 218.700 C 59.655 219.305,59.175 220.038,58.900 220.329 C 58.625 220.619,58.400 221.165,58.400 221.540 C 58.400 221.916,58.040 222.483,57.600 222.800 C 57.160 223.117,56.800 223.631,56.800 223.941 C 56.800 224.252,56.471 224.797,56.070 225.153 C 55.668 225.509,55.084 226.385,54.772 227.100 C 54.460 227.815,54.069 228.400,53.902 228.400 C 53.736 228.400,53.600 228.745,53.600 229.167 C 53.600 229.588,53.465 229.993,53.300 230.067 C 52.924 230.234,51.625 232.364,51.329 233.300 C 51.207 233.685,50.948 234.000,50.753 234.000 C 50.559 234.000,50.400 234.236,50.400 234.525 C 50.400 234.814,50.040 235.795,49.600 236.706 C 49.160 237.616,48.800 238.552,48.800 238.786 C 48.800 239.333,47.918 240.913,47.400 241.294 C 47.180 241.456,47.122 241.591,47.270 241.594 C 47.562 241.600,46.303 245.430,45.865 245.868 C 45.719 246.014,45.600 246.733,45.600 247.467 C 45.600 248.200,45.420 248.800,45.200 248.800 C 44.980 248.800,44.800 249.700,44.800 250.800 C 44.800 251.900,44.632 252.800,44.427 252.800 C 43.637 252.800,43.345 263.954,43.967 270.400 C 44.654 277.524,44.861 278.986,45.237 279.380 C 45.437 279.589,45.600 280.433,45.600 281.256 C 45.600 282.079,45.780 282.864,46.000 283.000 C 46.220 283.136,46.400 283.766,46.400 284.400 C 46.400 285.034,46.580 285.664,46.800 285.800 C 47.020 285.936,47.200 286.667,47.200 287.424 C 47.200 288.181,47.380 288.800,47.600 288.800 C 47.820 288.800,48.000 289.239,48.000 289.776 C 48.000 290.313,48.180 290.864,48.400 291.000 C 48.620 291.136,48.800 291.687,48.800 292.224 C 48.800 292.761,48.980 293.200,49.200 293.200 C 49.420 293.200,49.600 293.740,49.600 294.400 C 49.600 295.060,49.780 295.600,50.000 295.600 C 50.220 295.600,50.400 296.140,50.400 296.800 C 50.400 297.460,50.535 298.001,50.700 298.003 C 51.152 298.008,52.000 300.031,52.000 301.103 C 52.000 301.631,52.176 301.938,52.400 301.800 C 52.627 301.660,52.800 301.996,52.800 302.576 C 52.800 303.139,52.980 303.600,53.200 303.600 C 53.420 303.600,53.600 303.960,53.600 304.400 C 53.600 304.840,53.780 305.200,54.000 305.200 C 54.220 305.200,54.400 305.571,54.400 306.024 C 54.400 306.477,54.580 306.736,54.800 306.600 C 55.020 306.464,55.200 306.723,55.200 307.176 C 55.200 307.629,55.380 308.000,55.600 308.000 C 55.820 308.000,56.000 308.360,56.000 308.800 C 56.000 309.240,56.180 309.600,56.400 309.600 C 56.620 309.600,56.800 309.960,56.800 310.400 C 56.800 310.840,56.980 311.200,57.200 311.200 C 57.420 311.200,57.600 311.560,57.600 312.000 C 57.600 312.440,57.780 312.800,58.000 312.800 C 58.220 312.800,58.400 313.065,58.400 313.389 C 58.400 314.220,60.088 317.600,60.503 317.600 C 60.692 317.600,60.736 317.780,60.600 318.000 C 60.464 318.220,60.543 318.400,60.776 318.400 C 61.009 318.400,61.200 318.771,61.200 319.224 C 61.200 319.677,61.380 319.936,61.600 319.800 C 61.820 319.664,62.000 319.923,62.000 320.376 C 62.000 320.829,62.180 321.200,62.400 321.200 C 62.620 321.200,62.800 321.481,62.800 321.824 C 62.800 322.167,62.980 322.336,63.200 322.200 C 63.420 322.064,63.600 322.323,63.600 322.776 C 63.600 323.229,63.750 323.600,63.932 323.600 C 64.115 323.600,64.519 324.095,64.830 324.700 C 65.140 325.305,65.711 326.091,66.097 326.447 C 66.484 326.803,66.800 327.348,66.800 327.659 C 66.800 327.969,67.160 328.483,67.600 328.800 C 68.040 329.117,68.400 329.605,68.400 329.885 C 68.400 330.164,68.940 330.909,69.600 331.540 C 70.260 332.171,70.800 332.863,70.800 333.080 C 70.800 333.296,71.565 334.306,72.500 335.324 C 73.435 336.342,74.888 337.990,75.728 338.987 C 76.568 339.984,77.435 340.800,77.654 340.800 C 77.873 340.800,78.901 341.655,79.939 342.700 C 80.977 343.745,82.048 344.646,82.319 344.702 C 82.590 344.758,83.375 345.343,84.065 346.002 C 84.754 346.661,85.479 347.200,85.676 347.200 C 85.873 347.200,86.420 347.560,86.892 348.000 C 87.364 348.440,87.987 348.800,88.275 348.800 C 88.564 348.800,88.800 348.980,88.800 349.200 C 88.800 349.420,89.160 349.600,89.600 349.600 C 90.040 349.600,90.400 349.780,90.400 350.000 C 90.400 350.220,90.678 350.400,91.017 350.400 C 91.356 350.400,92.020 350.760,92.492 351.200 C 92.964 351.640,93.587 352.000,93.875 352.000 C 94.164 352.000,94.400 352.191,94.400 352.424 C 94.400 352.657,94.553 352.752,94.741 352.636 C 94.929 352.520,95.424 352.684,95.841 353.000 C 96.258 353.316,96.915 353.580,97.300 353.587 C 97.685 353.594,98.000 353.780,98.000 354.000 C 98.000 354.220,98.360 354.400,98.800 354.400 C 99.240 354.400,99.600 354.580,99.600 354.800 C 99.600 355.020,100.050 355.200,100.600 355.200 C 101.150 355.200,101.600 355.380,101.600 355.600 C 101.600 355.820,102.050 356.000,102.600 356.000 C 103.150 356.000,103.600 356.158,103.600 356.350 C 103.600 356.643,104.902 357.102,106.600 357.406 C 107.201 357.513,108.512 358.011,109.295 358.429 C 109.677 358.633,110.442 358.800,110.995 358.800 C 111.548 358.800,112.000 358.980,112.000 359.200 C 112.000 359.420,112.529 359.600,113.176 359.600 C 113.823 359.600,114.464 359.780,114.600 360.000 C 114.736 360.220,115.467 360.400,116.224 360.400 C 116.981 360.400,117.600 360.580,117.600 360.800 C 117.600 361.020,118.320 361.200,119.200 361.200 C 120.080 361.200,120.800 361.380,120.800 361.600 C 120.800 361.820,121.509 362.000,122.376 362.000 C 123.243 362.000,124.064 362.180,124.200 362.400 C 124.336 362.620,125.157 362.800,126.024 362.800 C 126.891 362.800,127.600 362.980,127.600 363.200 C 127.600 363.420,128.601 363.600,129.824 363.600 C 131.204 363.600,131.953 363.752,131.800 364.000 C 131.646 364.250,132.463 364.400,133.976 364.400 C 135.325 364.400,136.400 364.577,136.400 364.800 C 136.400 365.029,137.600 365.200,139.200 365.200 C 140.740 365.200,142.000 365.368,142.000 365.573 C 142.000 365.961,145.938 366.273,155.386 366.632 C 158.458 366.749,161.182 367.019,161.439 367.233 C 162.054 367.743,181.600 367.687,181.600 367.175 C 181.600 366.958,184.205 366.800,187.800 366.800 C 191.667 366.800,194.000 366.649,194.000 366.400 C 194.000 366.160,195.600 366.000,198.000 366.000 C 200.400 366.000,202.000 365.840,202.000 365.600 C 202.000 365.369,203.267 365.200,205.000 365.200 C 206.733 365.200,208.000 365.031,208.000 364.800 C 208.000 364.578,209.059 364.400,210.376 364.400 C 211.683 364.400,212.864 364.220,213.000 364.000 C 213.136 363.780,214.306 363.600,215.600 363.600 C 216.894 363.600,218.064 363.420,218.200 363.200 C 218.336 362.980,219.247 362.800,220.224 362.800 C 221.201 362.800,222.000 362.620,222.000 362.400 C 222.000 362.180,222.900 362.000,224.000 362.000 C 225.100 362.000,226.000 361.820,226.000 361.600 C 226.000 361.380,226.720 361.200,227.600 361.200 C 228.480 361.200,229.200 361.020,229.200 360.800 C 229.200 360.580,229.920 360.400,230.800 360.400 C 231.680 360.400,232.400 360.220,232.400 360.000 C 232.400 359.780,232.994 359.600,233.720 359.600 C 234.446 359.600,235.211 359.438,235.420 359.241 C 235.629 359.044,236.520 358.790,237.400 358.678 C 239.711 358.383,242.889 357.629,243.695 357.184 C 244.077 356.973,244.709 356.800,245.100 356.800 C 245.491 356.800,246.796 356.440,248.000 356.000 C 249.204 355.560,250.506 355.200,250.894 355.200 C 251.282 355.200,251.600 355.020,251.600 354.800 C 251.600 354.580,252.052 354.400,252.605 354.400 C 253.158 354.400,253.968 354.220,254.405 354.000 C 254.842 353.780,255.558 353.420,255.995 353.200 C 256.432 352.980,257.062 352.800,257.395 352.800 C 257.728 352.800,258.000 352.620,258.000 352.400 C 258.000 352.180,258.540 352.000,259.200 352.000 C 259.860 352.000,260.400 351.853,260.400 351.672 C 260.400 351.492,261.300 351.100,262.400 350.800 C 263.500 350.500,264.400 350.108,264.400 349.928 C 264.400 349.747,264.649 349.600,264.954 349.600 C 265.259 349.600,266.011 349.339,266.626 349.020 C 267.240 348.702,267.891 348.532,268.071 348.644 C 268.252 348.756,268.400 348.657,268.400 348.424 C 268.400 348.191,268.760 348.000,269.200 348.000 C 269.640 348.000,270.000 347.820,270.000 347.600 C 270.000 347.380,270.360 347.200,270.800 347.200 C 271.240 347.200,271.600 347.020,271.600 346.800 C 271.600 346.580,271.960 346.400,272.400 346.400 C 272.840 346.400,273.200 346.220,273.200 346.000 C 273.200 345.780,273.650 345.600,274.200 345.600 C 274.750 345.600,275.200 345.420,275.200 345.200 C 275.200 344.980,275.560 344.800,276.000 344.800 C 276.440 344.800,276.800 344.620,276.800 344.400 C 276.800 344.180,277.160 344.000,277.600 344.000 C 278.040 344.000,278.400 343.820,278.400 343.600 C 278.400 343.380,278.745 343.200,279.167 343.200 C 279.588 343.200,279.993 343.058,280.067 342.884 C 280.140 342.711,281.640 341.864,283.400 341.003 C 285.160 340.142,287.352 338.934,288.272 338.319 C 289.192 337.704,290.097 337.200,290.284 337.200 C 290.471 337.200,290.883 336.840,291.200 336.400 C 291.517 335.960,292.097 335.600,292.488 335.600 C 292.880 335.600,293.200 335.420,293.200 335.200 C 293.200 334.980,293.436 334.800,293.725 334.800 C 294.013 334.800,294.636 334.440,295.108 334.000 C 295.580 333.560,296.109 333.200,296.283 333.199 C 296.457 333.199,297.230 332.659,298.000 332.000 C 298.770 331.341,299.585 330.801,299.812 330.801 C 300.038 330.800,300.483 330.440,300.800 330.000 C 301.117 329.560,301.580 329.200,301.829 329.200 C 302.078 329.200,302.846 328.660,303.537 328.000 C 304.228 327.340,304.882 326.800,304.992 326.800 C 305.231 326.800,306.496 325.771,307.943 324.399 C 308.525 323.848,309.674 322.948,310.497 322.399 C 311.321 321.849,311.996 321.145,311.997 320.833 C 311.999 320.522,312.109 320.375,312.242 320.508 C 312.518 320.785,320.400 312.916,320.400 312.363 C 320.400 312.164,320.625 311.999,320.900 311.997 C 321.175 311.996,321.850 311.323,322.400 310.503 C 323.390 309.025,324.534 307.576,325.500 306.575 C 325.775 306.290,326.000 305.953,326.000 305.825 C 326.000 305.697,326.540 305.028,327.200 304.337 C 327.860 303.646,328.400 302.878,328.400 302.629 C 328.400 302.380,328.760 301.917,329.200 301.600 C 329.640 301.283,330.000 300.743,330.000 300.400 C 330.000 300.057,330.360 299.517,330.800 299.200 C 331.240 298.883,331.600 298.369,331.600 298.059 C 331.600 297.748,331.915 297.203,332.300 296.847 C 332.685 296.491,333.059 295.930,333.130 295.600 C 333.202 295.270,333.427 294.940,333.630 294.867 C 333.834 294.793,334.000 294.471,334.000 294.150 C 334.000 293.829,334.360 293.180,334.800 292.708 C 335.240 292.236,335.600 291.613,335.600 291.325 C 335.600 291.036,335.791 290.800,336.024 290.800 C 336.257 290.800,336.344 290.632,336.217 290.428 C 336.091 290.223,336.181 289.935,336.418 289.789 C 336.841 289.528,337.780 287.456,337.528 287.342 C 337.458 287.310,337.697 286.950,338.061 286.542 C 338.424 286.134,338.947 285.035,339.224 284.100 C 339.500 283.165,339.842 282.400,339.984 282.400 C 340.126 282.400,340.578 281.221,340.990 279.780 C 341.402 278.340,341.888 277.069,342.070 276.957 C 342.251 276.845,342.400 276.403,342.400 275.976 C 342.400 275.549,342.541 275.200,342.713 275.200 C 342.885 275.200,343.265 274.390,343.557 273.400 C 343.849 272.410,344.248 271.600,344.444 271.600 C 344.640 271.600,344.800 271.161,344.800 270.624 C 344.800 270.087,344.980 269.536,345.200 269.400 C 345.420 269.264,345.600 268.703,345.600 268.153 C 345.600 267.588,345.774 267.260,346.000 267.400 C 346.233 267.544,346.400 267.137,346.400 266.424 C 346.400 265.751,346.580 265.200,346.800 265.200 C 347.020 265.200,347.200 264.660,347.200 264.000 C 347.200 263.340,347.380 262.800,347.600 262.800 C 347.820 262.800,348.000 262.451,348.000 262.024 C 348.000 261.597,348.180 261.136,348.400 261.000 C 348.620 260.864,348.800 260.213,348.800 259.553 C 348.800 258.893,348.942 258.440,349.115 258.548 C 349.288 258.655,349.470 258.260,349.519 257.671 C 349.567 257.082,349.785 256.540,350.003 256.467 C 350.222 256.393,350.400 255.808,350.400 255.167 C 350.400 254.525,350.580 254.000,350.800 254.000 C 351.020 254.000,351.200 253.471,351.200 252.824 C 351.200 252.177,351.380 251.536,351.600 251.400 C 351.820 251.264,352.000 250.634,352.000 250.000 C 352.000 249.366,352.180 248.736,352.400 248.600 C 352.620 248.464,352.800 247.924,352.800 247.400 C 352.800 246.876,352.980 246.336,353.200 246.200 C 353.420 246.064,353.600 245.344,353.600 244.600 C 353.600 243.856,353.780 243.136,354.000 243.000 C 354.220 242.864,354.400 242.234,354.400 241.600 C 354.400 240.966,354.561 240.348,354.758 240.226 C 354.955 240.105,355.214 239.329,355.335 238.503 C 355.756 235.622,356.103 234.197,356.507 233.690 C 356.731 233.410,356.819 233.086,356.704 232.970 C 356.588 232.855,356.667 232.094,356.879 231.280 C 357.543 228.731,358.404 223.520,358.660 220.500 C 358.795 218.905,359.062 217.600,359.253 217.600 C 359.444 217.600,359.600 216.261,359.600 214.624 C 359.600 212.987,359.780 211.536,360.000 211.400 C 360.221 211.263,360.400 209.463,360.400 207.376 C 360.400 205.247,360.566 203.600,360.782 203.600 C 361.322 203.600,361.349 174.139,360.809 173.805 C 360.577 173.662,360.400 171.916,360.400 169.776 C 360.400 167.525,360.238 166.000,360.000 166.000 C 359.775 166.000,359.600 164.875,359.600 163.424 C 359.600 162.007,359.420 160.736,359.200 160.600 C 358.980 160.464,358.800 159.778,358.800 159.076 C 358.799 158.374,358.525 156.483,358.189 154.873 C 357.523 151.680,357.254 150.194,356.929 147.897 C 356.811 147.071,356.555 146.295,356.358 146.174 C 356.161 146.052,356.000 145.511,356.000 144.971 C 356.000 144.431,355.842 143.677,355.649 143.295 C 355.060 142.128,354.400 139.792,354.400 138.872 C 354.400 138.392,354.220 138.000,354.000 138.000 C 353.780 138.000,353.600 137.550,353.600 137.000 C 353.600 136.450,353.449 136.000,353.264 136.000 C 353.079 136.000,352.690 135.010,352.400 133.800 C 352.110 132.590,351.754 131.600,351.608 131.600 C 351.463 131.600,351.100 130.700,350.800 129.600 C 350.500 128.500,350.108 127.600,349.928 127.600 C 349.747 127.600,349.600 127.150,349.600 126.600 C 349.600 126.050,349.420 125.600,349.200 125.600 C 348.980 125.600,348.800 125.240,348.800 124.800 C 348.800 124.360,348.620 124.000,348.400 124.000 C 348.180 124.000,348.000 123.640,348.000 123.200 C 348.000 122.760,347.820 122.400,347.600 122.400 C 347.380 122.400,347.200 122.128,347.200 121.795 C 347.200 121.462,346.992 120.787,346.738 120.295 C 345.767 118.418,345.600 117.993,345.600 117.405 C 345.600 117.072,345.420 116.800,345.200 116.800 C 344.980 116.800,344.800 116.530,344.800 116.200 C 344.800 115.870,344.620 115.600,344.400 115.600 C 344.180 115.600,344.000 115.330,344.000 115.000 C 344.000 114.670,343.820 114.400,343.600 114.400 C 343.380 114.400,343.200 114.040,343.200 113.600 C 343.200 113.160,343.020 112.800,342.800 112.800 C 342.580 112.800,342.400 112.440,342.400 112.000 C 342.400 111.560,342.256 111.200,342.080 111.200 C 341.905 111.200,341.533 110.570,341.254 109.800 C 340.976 109.030,340.550 108.400,340.307 108.400 C 340.065 108.400,339.978 108.289,340.114 108.152 C 340.250 108.016,340.099 107.642,339.777 107.320 C 339.456 106.999,339.295 106.570,339.420 106.368 C 339.545 106.165,339.478 106.000,339.272 106.000 C 339.066 106.000,338.673 105.460,338.400 104.800 C 338.127 104.140,337.745 103.600,337.551 103.600 C 337.358 103.600,337.200 103.364,337.200 103.075 C 337.200 102.787,336.840 102.164,336.400 101.692 C 335.960 101.220,335.600 100.691,335.599 100.517 C 335.599 100.343,335.059 99.570,334.400 98.800 C 333.741 98.030,333.201 97.215,333.201 96.988 C 333.200 96.762,332.840 96.317,332.400 96.000 C 331.960 95.683,331.600 95.193,331.600 94.912 C 331.600 94.630,331.420 94.400,331.200 94.400 C 330.980 94.400,330.800 94.170,330.800 93.888 C 330.800 93.607,330.440 93.117,330.000 92.800 C 329.560 92.483,329.200 92.071,329.200 91.886 C 329.200 91.700,328.300 90.671,327.200 89.600 C 326.100 88.529,325.200 87.462,325.200 87.229 C 325.200 86.724,324.197 85.517,321.057 82.243 C 315.033 75.962,313.049 74.000,312.721 74.000 C 312.525 74.000,310.941 72.560,309.200 70.800 C 307.459 69.040,305.937 67.600,305.819 67.600 C 305.701 67.600,304.685 66.700,303.561 65.600 C 302.438 64.500,301.356 63.600,301.156 63.600 C 300.956 63.600,300.228 63.060,299.537 62.400 C 298.846 61.740,298.120 61.200,297.922 61.200 C 297.725 61.200,297.114 60.750,296.564 60.200 C 296.014 59.650,295.302 59.200,294.982 59.200 C 294.662 59.200,294.400 59.020,294.400 58.800 C 294.400 58.580,294.170 58.400,293.888 58.400 C 293.607 58.400,293.117 58.040,292.800 57.600 C 292.483 57.160,292.076 56.800,291.895 56.800 C 291.714 56.800,291.180 56.440,290.708 56.000 C 290.236 55.560,289.613 55.200,289.325 55.200 C 289.036 55.200,288.800 55.020,288.800 54.800 C 288.800 54.580,288.519 54.400,288.176 54.400 C 287.833 54.400,287.664 54.220,287.800 54.000 C 287.936 53.780,287.716 53.600,287.312 53.600 C 286.907 53.600,286.317 53.240,286.000 52.800 C 285.683 52.360,285.186 52.000,284.895 52.000 C 284.604 52.000,283.980 51.640,283.508 51.200 C 283.036 50.760,282.413 50.400,282.125 50.400 C 281.836 50.400,281.600 50.220,281.600 50.000 C 281.600 49.780,281.255 49.600,280.833 49.600 C 280.412 49.600,280.007 49.465,279.933 49.300 C 279.766 48.924,277.636 47.625,276.700 47.329 C 276.315 47.207,276.000 46.937,276.000 46.730 C 276.000 46.522,275.835 46.455,275.632 46.580 C 275.430 46.705,275.025 46.571,274.732 46.281 C 274.284 45.838,273.174 45.234,272.400 45.012 C 272.073 44.918,268.259 43.166,267.484 42.754 C 267.090 42.544,266.595 42.480,266.384 42.610 C 266.173 42.740,266.000 42.689,266.000 42.496 C 266.000 42.303,265.089 41.896,263.975 41.593 C 262.861 41.290,261.860 40.897,261.751 40.721 C 261.642 40.544,261.113 40.400,260.576 40.400 C 260.039 40.400,259.600 40.220,259.600 40.000 C 259.600 39.780,259.161 39.600,258.624 39.600 C 258.087 39.600,257.536 39.420,257.400 39.200 C 257.264 38.980,256.713 38.800,256.176 38.800 C 255.639 38.800,255.200 38.620,255.200 38.400 C 255.200 38.180,254.671 38.000,254.024 38.000 C 253.377 38.000,252.736 37.820,252.600 37.600 C 252.464 37.380,251.733 37.200,250.976 37.200 C 250.219 37.200,249.600 37.020,249.600 36.800 C 249.600 36.580,248.880 36.400,248.000 36.400 C 247.120 36.400,246.400 36.220,246.400 36.000 C 246.400 35.780,245.500 35.600,244.400 35.600 C 243.300 35.600,242.400 35.420,242.400 35.200 C 242.400 34.980,241.601 34.800,240.624 34.800 C 239.647 34.800,238.736 34.620,238.600 34.400 C 238.464 34.180,237.204 34.000,235.800 34.000 C 234.396 34.000,233.136 33.820,233.000 33.600 C 232.858 33.371,230.796 33.200,228.176 33.200 C 225.659 33.200,223.600 33.035,223.600 32.832 C 223.600 32.306,208.934 32.260,208.609 32.786 " stroke="none" fill="#ebebeb" fill-rule="evenodd"></path><path id="path3" d="M71.000 74.400 C 70.864 74.620,70.358 74.798,69.876 74.797 C 68.790 74.792,63.980 75.921,61.704 76.715 C 59.936 77.331,59.643 78.908,60.855 81.274 C 61.045 81.644,61.200 82.399,61.200 82.950 C 61.200 83.502,61.380 84.064,61.600 84.200 C 61.820 84.336,62.000 84.966,62.000 85.600 C 62.000 86.234,62.180 86.864,62.400 87.000 C 62.620 87.136,62.800 87.766,62.800 88.400 C 62.800 89.034,62.980 89.664,63.200 89.800 C 63.420 89.936,63.600 90.656,63.600 91.400 C 63.600 92.144,63.760 92.852,63.956 92.973 C 64.151 93.094,64.413 93.779,64.537 94.496 C 65.085 97.669,65.349 98.606,65.830 99.087 C 66.432 99.689,70.000 99.786,70.000 99.200 C 70.000 98.980,70.630 98.800,71.400 98.800 C 72.170 98.800,72.800 98.620,72.800 98.400 C 72.800 98.180,73.520 98.000,74.400 98.000 C 75.280 98.000,76.000 97.820,76.000 97.600 C 76.000 97.380,76.360 97.200,76.800 97.200 C 77.493 97.200,77.600 96.933,77.600 95.200 C 77.600 94.100,77.420 93.200,77.200 93.200 C 76.980 93.200,76.800 92.570,76.800 91.800 C 76.800 91.030,76.620 90.400,76.400 90.400 C 76.180 90.400,76.000 89.680,76.000 88.800 C 76.000 87.920,75.820 87.200,75.600 87.200 C 75.380 87.200,75.200 86.792,75.200 86.293 C 75.200 85.793,74.679 83.318,74.043 80.793 C 72.507 74.694,71.772 73.151,71.000 74.400 M187.400 80.818 C 186.684 81.011,187.571 81.052,189.600 80.919 C 191.470 80.797,193.075 80.630,193.167 80.549 C 193.482 80.267,188.598 80.495,187.400 80.818 M208.800 80.817 C 210.010 80.984,211.630 81.117,212.400 81.113 L 213.800 81.105 212.600 80.800 C 211.940 80.632,210.320 80.499,209.000 80.504 L 206.600 80.513 208.800 80.817 M181.000 81.600 L 179.800 81.905 181.000 81.905 C 181.660 81.905,182.740 81.768,183.400 81.600 L 184.600 81.295 183.400 81.295 C 182.740 81.295,181.660 81.432,181.000 81.600 M216.200 81.623 C 217.080 81.805,218.340 81.943,219.000 81.930 L 220.200 81.905 219.000 81.600 C 218.340 81.432,217.080 81.294,216.200 81.293 L 214.600 81.292 216.200 81.623 M177.000 82.260 C 173.989 82.888,168.834 84.100,168.000 84.376 C 167.450 84.558,166.190 84.926,165.200 85.193 C 164.210 85.460,163.087 85.840,162.705 86.039 C 162.323 86.238,161.659 86.400,161.229 86.400 C 160.799 86.400,160.336 86.580,160.200 86.800 C 160.064 87.020,159.691 87.200,159.372 87.200 C 159.053 87.200,157.938 87.578,156.896 88.040 C 155.853 88.502,154.640 89.019,154.200 89.189 C 150.892 90.469,141.677 95.032,140.356 96.045 C 139.830 96.448,142.190 95.385,145.600 93.683 C 149.010 91.980,152.610 90.261,153.600 89.863 C 155.917 88.930,156.986 88.491,158.100 88.017 C 159.257 87.524,165.037 85.600,166.600 85.186 C 170.993 84.026,172.469 83.664,174.600 83.230 C 177.907 82.555,179.568 82.081,178.600 82.087 C 178.160 82.090,177.440 82.168,177.000 82.260 M221.200 82.400 C 221.750 82.576,222.740 82.717,223.400 82.713 L 224.600 82.705 223.400 82.400 C 222.740 82.232,221.750 82.091,221.200 82.087 L 220.200 82.080 221.200 82.400 M225.400 83.181 C 225.840 83.360,227.889 83.909,229.953 84.400 C 235.483 85.717,238.936 86.866,246.600 89.941 C 247.480 90.294,250.990 91.993,254.400 93.717 C 257.810 95.442,260.420 96.677,260.200 96.464 C 259.212 95.504,249.559 90.642,245.800 89.212 C 245.360 89.044,244.460 88.679,243.800 88.400 C 241.461 87.412,240.962 87.231,237.400 86.078 C 230.465 83.835,221.984 81.787,225.400 83.181 M133.707 100.122 C 131.016 101.925,128.406 103.763,127.907 104.206 C 127.408 104.649,126.383 105.449,125.629 105.984 C 124.874 106.519,123.614 107.529,122.829 108.230 C 122.043 108.931,120.363 110.426,119.096 111.552 C 117.828 112.678,116.895 113.600,117.021 113.600 C 117.148 113.600,118.994 112.098,121.125 110.261 C 126.129 105.950,132.234 101.369,136.121 99.009 C 139.004 97.259,139.626 96.769,138.900 96.822 C 138.735 96.833,136.398 98.318,133.707 100.122 M261.020 97.143 C 261.229 97.331,263.650 98.977,266.400 100.801 C 269.150 102.624,272.795 105.265,274.500 106.670 C 276.205 108.074,277.600 109.115,277.600 108.983 C 277.600 108.609,275.722 106.966,272.971 104.935 C 272.327 104.459,270.944 103.424,269.898 102.636 C 266.320 99.939,259.314 95.604,261.020 97.143 M283.433 114.612 C 290.012 121.138,294.582 126.642,299.197 133.600 C 301.022 136.350,302.691 138.780,302.906 139.000 C 304.058 140.176,299.797 133.328,297.395 130.143 C 296.589 129.074,295.541 127.673,295.065 127.029 C 294.223 125.889,293.246 124.668,291.202 122.203 C 289.359 119.979,280.212 110.741,279.000 109.878 C 278.340 109.409,280.335 111.539,283.433 114.612 M56.800 112.356 C 56.800 112.552,56.170 112.822,55.400 112.956 C 54.630 113.090,53.368 113.310,52.596 113.444 C 51.824 113.579,51.094 113.849,50.973 114.044 C 50.852 114.240,50.234 114.400,49.600 114.400 C 48.966 114.400,48.336 114.580,48.200 114.800 C 48.064 115.020,47.344 115.200,46.600 115.200 C 45.856 115.200,45.136 115.380,45.000 115.600 C 44.864 115.820,44.234 116.000,43.600 116.000 C 42.966 116.000,42.336 116.180,42.200 116.400 C 42.064 116.620,41.434 116.800,40.800 116.800 C 40.166 116.800,39.536 116.980,39.400 117.200 C 39.264 117.420,38.533 117.600,37.776 117.600 C 36.514 117.600,36.400 117.699,36.400 118.800 C 36.400 119.460,36.580 120.000,36.800 120.000 C 37.020 120.000,37.200 120.630,37.200 121.400 C 37.200 122.170,37.360 122.800,37.556 122.800 C 37.752 122.800,38.022 123.430,38.156 124.200 C 38.290 124.970,38.510 126.230,38.644 127.000 C 38.778 127.770,39.048 128.400,39.244 128.400 C 39.440 128.400,39.600 128.760,39.600 129.200 C 39.600 130.068,41.710 130.393,42.200 129.600 C 42.336 129.380,42.977 129.200,43.624 129.200 C 44.271 129.200,44.800 129.020,44.800 128.800 C 44.800 128.580,45.520 128.400,46.400 128.400 C 47.280 128.400,48.000 128.220,48.000 128.000 C 48.000 127.780,48.619 127.600,49.376 127.600 C 50.133 127.600,50.864 127.420,51.000 127.200 C 51.136 126.980,51.766 126.800,52.400 126.800 C 53.034 126.800,53.664 126.620,53.800 126.400 C 53.936 126.180,54.566 126.000,55.200 126.000 C 55.834 126.000,56.464 125.820,56.600 125.600 C 56.736 125.380,57.467 125.200,58.224 125.200 C 58.981 125.200,59.600 125.040,59.600 124.844 C 59.600 124.649,59.825 124.497,60.100 124.507 C 61.844 124.572,62.000 124.415,62.000 122.600 C 62.000 121.610,61.820 120.800,61.600 120.800 C 61.380 120.800,61.200 120.080,61.200 119.200 C 61.200 118.320,61.020 117.600,60.800 117.600 C 60.580 117.600,60.400 116.970,60.400 116.200 C 60.400 115.430,60.220 114.800,60.000 114.800 C 59.780 114.800,59.600 114.170,59.600 113.400 C 59.600 112.067,59.533 112.000,58.200 112.000 C 57.430 112.000,56.800 112.160,56.800 112.356 M305.907 144.769 C 306.948 146.732,307.849 148.205,307.909 148.041 C 307.969 147.878,307.294 146.427,306.409 144.817 C 305.524 143.207,304.800 141.734,304.800 141.545 C 304.800 141.355,304.623 141.200,304.407 141.200 C 304.192 141.200,304.867 142.806,305.907 144.769 M308.637 150.300 C 310.827 155.367,311.811 157.924,313.221 162.200 C 315.333 168.603,315.706 169.923,316.597 174.147 C 316.730 174.778,316.937 175.196,317.057 175.076 C 317.349 174.784,315.431 167.090,313.947 162.600 C 312.767 159.029,312.578 158.515,311.600 156.200 C 311.321 155.540,310.956 154.640,310.788 154.200 C 310.171 152.578,308.336 148.800,308.165 148.800 C 308.068 148.800,308.281 149.475,308.637 150.300 M317.275 176.800 C 317.265 177.570,317.411 178.560,317.600 179.000 C 318.057 180.064,318.057 178.397,317.600 176.600 L 317.295 175.400 317.275 176.800 M318.095 181.600 C 318.095 182.370,318.232 183.540,318.400 184.200 L 318.705 185.400 318.705 184.000 C 318.705 183.230,318.568 182.060,318.400 181.400 L 318.095 180.200 318.095 181.600 M319.076 190.400 C 319.200 192.710,319.368 194.675,319.450 194.767 C 319.748 195.099,319.545 189.360,319.203 187.800 C 318.965 186.711,318.924 187.540,319.076 190.400 M319.065 209.132 C 318.881 211.405,318.821 213.354,318.930 213.464 C 319.236 213.769,319.681 208.831,319.531 206.800 C 319.441 205.570,319.293 206.308,319.065 209.132 M80.440 209.233 C 80.462 210.645,80.632 212.250,80.818 212.800 C 81.024 213.407,81.067 212.465,80.927 210.400 C 80.651 206.314,80.385 205.676,80.440 209.233 M318.185 216.985 C 318.030 218.223,318.000 219.334,318.119 219.452 C 318.237 219.570,318.461 218.654,318.615 217.415 C 318.770 216.177,318.800 215.066,318.681 214.948 C 318.563 214.830,318.339 215.746,318.185 216.985 M81.295 216.600 C 81.295 217.260,81.432 218.340,81.600 219.000 L 81.905 220.200 81.905 219.000 C 81.905 218.340,81.768 217.260,81.600 216.600 L 81.295 215.400 81.295 216.600 M317.398 221.900 C 317.030 224.208,315.837 229.478,315.156 231.800 C 313.468 237.556,311.235 243.687,308.637 249.700 C 307.609 252.080,308.229 251.440,309.413 248.900 C 310.434 246.708,310.759 245.945,311.546 243.900 C 311.737 243.405,312.087 242.550,312.325 242.000 C 314.425 237.139,318.722 220.400,317.869 220.400 C 317.741 220.400,317.529 221.075,317.398 221.900 M82.252 222.400 C 82.459 224.078,83.934 230.411,84.859 233.600 C 85.083 234.370,85.362 235.497,85.479 236.105 C 85.596 236.713,85.851 237.308,86.046 237.429 C 86.241 237.549,86.400 238.076,86.400 238.600 C 86.400 239.124,86.580 239.664,86.800 239.800 C 87.020 239.936,87.200 240.309,87.200 240.628 C 87.200 240.947,87.578 242.062,88.040 243.104 C 88.502 244.147,89.019 245.360,89.189 245.800 C 90.408 248.950,95.261 258.800,95.595 258.800 C 95.719 258.800,94.646 256.414,93.211 253.498 C 91.775 250.582,90.271 247.387,89.869 246.398 C 88.774 243.706,88.438 242.890,88.017 241.900 C 87.524 240.743,85.600 234.963,85.186 233.400 C 84.026 229.007,83.664 227.531,83.230 225.400 C 82.475 221.700,81.976 220.171,82.252 222.400 M305.907 255.231 C 304.867 257.194,304.192 258.800,304.407 258.800 C 304.623 258.800,304.800 258.645,304.800 258.455 C 304.800 258.266,305.524 256.793,306.409 255.183 C 307.294 253.573,307.969 252.122,307.909 251.959 C 307.849 251.795,306.948 253.268,305.907 255.231 M96.800 260.990 C 96.800 261.309,102.029 269.286,102.634 269.892 C 102.946 270.203,103.200 270.581,103.200 270.733 C 103.200 270.884,103.610 271.456,104.111 272.004 C 104.613 272.552,105.458 273.617,105.989 274.371 C 108.819 278.385,121.611 291.177,125.629 294.011 C 126.383 294.543,127.360 295.316,127.800 295.730 C 129.025 296.881,138.841 303.292,139.053 303.080 C 139.223 302.911,136.325 300.955,134.114 299.746 C 130.620 297.836,119.185 288.331,114.376 283.339 C 109.545 278.323,101.863 268.830,100.254 265.886 C 98.651 262.955,96.800 260.331,96.800 260.990 M299.562 265.889 C 297.713 268.689,294.985 272.469,293.499 274.289 C 292.013 276.110,290.901 277.600,291.028 277.600 C 291.391 277.600,293.058 275.689,295.065 272.971 C 295.541 272.327,296.589 270.926,297.395 269.857 C 299.733 266.757,303.469 260.800,303.076 260.800 C 302.993 260.800,301.411 263.090,299.562 265.889 M284.312 284.438 C 280.853 287.937,278.127 290.800,278.252 290.800 C 278.612 290.800,289.186 280.327,290.066 279.100 C 290.500 278.495,290.797 278.017,290.727 278.038 C 290.657 278.058,287.770 280.938,284.312 284.438 M274.600 293.252 C 271.438 295.899,263.171 301.507,259.079 303.780 C 257.583 304.612,256.437 305.370,256.532 305.466 C 256.860 305.793,265.728 300.458,269.400 297.725 C 270.720 296.742,272.327 295.547,272.971 295.069 C 275.832 292.947,277.777 291.232,277.548 291.035 C 277.466 290.965,276.140 291.963,274.600 293.252 M141.201 304.389 C 141.202 304.718,151.536 309.812,154.200 310.797 C 154.640 310.960,155.540 311.321,156.200 311.600 C 156.860 311.879,157.850 312.284,158.400 312.500 C 158.950 312.716,159.713 313.052,160.095 313.247 C 160.477 313.441,161.141 313.600,161.571 313.600 C 162.001 313.600,162.451 313.759,162.571 313.954 C 162.692 314.149,163.287 314.404,163.895 314.521 C 164.503 314.638,165.630 314.917,166.400 315.141 C 169.970 316.177,175.990 317.559,177.800 317.758 C 180.056 318.006,178.959 317.669,174.600 316.776 C 169.220 315.674,160.740 313.120,157.304 311.567 C 156.372 311.145,155.487 310.800,155.339 310.800 C 154.873 310.800,151.990 309.492,146.502 306.789 C 143.586 305.354,141.200 304.274,141.201 304.389 M253.600 306.800 C 252.390 307.439,251.602 307.971,251.850 307.981 C 252.331 308.001,256.000 306.043,256.000 305.766 C 256.000 305.530,256.023 305.520,253.600 306.800 M250.000 308.522 C 249.450 308.807,247.020 309.813,244.600 310.757 C 242.180 311.702,239.840 312.620,239.400 312.797 C 236.679 313.893,231.112 315.451,225.853 316.590 C 225.222 316.727,224.796 316.929,224.906 317.039 C 225.110 317.243,229.312 316.385,232.200 315.549 C 234.930 314.759,240.950 312.779,242.000 312.325 C 243.083 311.857,244.533 311.271,245.800 310.788 C 247.398 310.180,251.200 308.337,251.200 308.171 C 251.200 307.923,251.105 307.951,250.000 308.522 M221.200 317.600 L 220.200 317.920 221.200 317.913 C 221.750 317.909,222.740 317.768,223.400 317.600 L 224.600 317.295 223.400 317.287 C 222.740 317.283,221.750 317.424,221.200 317.600 M181.000 318.400 C 181.660 318.568,182.830 318.706,183.600 318.707 L 185.000 318.708 183.400 318.377 C 181.245 317.931,179.234 317.951,181.000 318.400 M215.800 318.400 L 214.600 318.705 215.800 318.730 C 216.460 318.743,217.720 318.605,218.600 318.423 L 220.200 318.092 218.600 318.093 C 217.720 318.094,216.460 318.232,215.800 318.400 M187.400 319.200 C 188.060 319.368,189.680 319.501,191.000 319.496 L 193.400 319.487 191.200 319.183 C 189.990 319.016,188.370 318.883,187.600 318.887 L 186.200 318.895 187.400 319.200 M208.600 319.200 L 206.600 319.474 209.000 319.490 C 210.320 319.498,211.940 319.368,212.600 319.200 C 214.210 318.790,211.588 318.790,208.600 319.200 " stroke="none" fill="#94a4ac" fill-rule="evenodd"></path><path id="path4" d="M188.600 81.016 C 182.780 81.622,178.394 82.273,178.091 82.576 C 177.780 82.886,178.236 82.857,181.000 82.389 C 190.283 80.818,201.203 80.462,210.749 81.419 C 214.130 81.759,216.995 81.938,217.115 81.818 C 217.235 81.698,217.078 81.598,216.767 81.596 C 216.455 81.593,213.680 81.324,210.600 80.996 C 204.062 80.302,195.384 80.309,188.600 81.016 M217.633 82.146 C 217.725 82.226,218.790 82.394,220.000 82.519 C 221.420 82.666,221.846 82.629,221.200 82.413 C 220.209 82.083,217.313 81.865,217.633 82.146 M174.600 83.210 C 174.066 83.447,174.398 83.486,175.600 83.327 C 176.590 83.196,177.475 83.024,177.567 82.944 C 177.914 82.643,175.364 82.872,174.600 83.210 M222.433 82.947 C 222.525 83.028,223.320 83.214,224.200 83.362 C 225.346 83.554,225.630 83.514,225.200 83.221 C 224.660 82.853,222.032 82.593,222.433 82.947 M171.000 84.000 L 170.200 84.344 171.000 84.332 C 171.440 84.326,172.250 84.176,172.800 84.000 L 173.800 83.680 172.800 83.668 C 172.250 83.662,171.440 83.811,171.000 84.000 M227.200 84.000 C 228.568 84.438,229.619 84.438,228.600 84.000 C 228.160 83.811,227.440 83.662,227.000 83.668 C 226.357 83.677,226.396 83.743,227.200 84.000 M168.000 84.800 C 167.205 85.314,168.204 85.314,169.400 84.800 L 170.200 84.456 169.400 84.434 C 168.960 84.422,168.330 84.587,168.000 84.800 M230.600 84.800 C 231.040 84.989,231.670 85.144,232.000 85.144 C 232.378 85.144,232.304 85.017,231.800 84.800 C 231.360 84.611,230.730 84.456,230.400 84.456 C 230.022 84.456,230.096 84.583,230.600 84.800 M165.200 85.600 C 164.405 86.114,165.404 86.114,166.600 85.600 L 167.400 85.256 166.600 85.234 C 166.160 85.222,165.530 85.387,165.200 85.600 M233.400 85.600 C 233.840 85.789,234.470 85.944,234.800 85.944 C 235.178 85.944,235.104 85.817,234.600 85.600 C 234.160 85.411,233.530 85.256,233.200 85.256 C 232.822 85.256,232.896 85.383,233.400 85.600 M162.800 86.400 C 162.267 86.745,162.267 86.788,162.800 86.788 C 163.130 86.788,163.670 86.613,164.000 86.400 C 164.533 86.055,164.533 86.012,164.000 86.012 C 163.670 86.012,163.130 86.187,162.800 86.400 M236.000 86.400 C 236.330 86.613,236.870 86.788,237.200 86.788 C 237.733 86.788,237.733 86.745,237.200 86.400 C 236.870 86.187,236.330 86.012,236.000 86.012 C 235.467 86.012,235.467 86.055,236.000 86.400 M160.400 87.200 C 159.867 87.545,159.867 87.588,160.400 87.588 C 160.730 87.588,161.270 87.413,161.600 87.200 C 162.133 86.855,162.133 86.812,161.600 86.812 C 161.270 86.812,160.730 86.987,160.400 87.200 M238.400 87.200 C 238.730 87.413,239.270 87.588,239.600 87.588 C 240.133 87.588,240.133 87.545,239.600 87.200 C 239.270 86.987,238.730 86.812,238.400 86.812 C 237.867 86.812,237.867 86.855,238.400 87.200 M143.220 94.835 C 139.052 97.107,132.829 100.985,131.400 102.201 C 130.740 102.763,132.270 101.899,134.800 100.282 C 137.330 98.664,140.840 96.566,142.600 95.618 C 145.507 94.053,146.859 93.191,146.380 93.206 C 146.281 93.209,144.859 93.942,143.220 94.835 M253.600 93.341 C 253.600 93.608,257.290 95.643,257.463 95.471 C 257.540 95.393,256.703 94.839,255.602 94.240 C 254.501 93.640,253.600 93.236,253.600 93.341 M258.000 95.752 C 258.000 95.846,258.945 96.472,260.100 97.142 C 261.255 97.813,262.785 98.748,263.500 99.220 C 264.215 99.692,264.800 99.996,264.800 99.896 C 264.800 99.655,260.951 97.106,259.298 96.251 C 258.584 95.881,258.000 95.657,258.000 95.752 M191.800 97.268 C 184.849 98.016,176.872 99.369,176.412 99.877 C 176.207 100.104,177.848 99.875,181.600 99.155 C 192.587 97.047,208.990 97.149,219.732 99.392 C 221.454 99.751,223.074 99.968,223.332 99.874 C 223.589 99.780,223.080 99.574,222.200 99.418 C 221.320 99.261,220.060 98.987,219.400 98.809 C 218.133 98.467,214.025 97.922,207.400 97.218 C 202.881 96.737,196.545 96.758,191.800 97.268 M167.800 102.164 C 162.175 104.043,157.568 105.896,155.000 107.314 C 154.560 107.557,153.110 108.310,151.777 108.986 C 148.336 110.733,144.218 113.338,139.489 116.758 C 121.328 129.895,107.304 149.730,101.281 170.800 C 99.651 176.502,98.687 180.902,98.037 185.600 C 94.898 208.317,99.598 232.656,110.709 251.222 C 111.309 252.225,112.331 253.935,112.980 255.022 C 125.213 275.526,152.819 295.534,175.022 299.988 C 176.110 300.206,178.170 300.634,179.600 300.939 C 184.970 302.085,195.065 303.208,200.000 303.208 C 204.295 303.208,216.561 301.940,219.400 301.203 C 220.060 301.032,221.680 300.678,223.000 300.416 C 237.952 297.448,255.122 288.603,268.162 277.151 C 283.566 263.623,296.414 242.512,300.036 224.778 C 300.281 223.580,300.646 221.880,300.849 221.000 C 302.607 213.351,303.553 200.204,302.844 193.243 C 302.182 186.731,301.568 182.006,301.203 180.600 C 301.032 179.940,300.678 178.320,300.416 177.000 C 294.867 149.041,273.444 121.668,246.400 107.980 C 239.774 104.626,226.426 99.795,224.649 100.107 C 223.936 100.232,223.993 100.303,225.000 100.551 C 228.174 101.331,233.068 102.828,235.100 103.640 C 235.595 103.838,236.450 104.180,237.000 104.400 C 237.550 104.620,238.405 104.962,238.900 105.159 C 242.447 106.575,247.036 108.763,249.600 110.261 C 250.590 110.840,251.980 111.642,252.688 112.043 C 265.519 119.314,280.827 134.636,288.012 147.400 C 290.204 151.293,290.761 152.318,291.705 154.200 C 292.819 156.419,294.342 159.769,294.797 161.000 C 295.250 162.224,296.053 164.121,296.447 164.895 C 296.641 165.277,296.800 165.941,296.800 166.371 C 296.800 166.801,296.959 167.251,297.152 167.370 C 297.346 167.490,297.594 167.996,297.703 168.494 C 297.812 168.992,298.456 171.519,299.134 174.110 C 304.001 192.713,303.152 218.677,297.222 232.600 C 297.034 233.040,296.664 234.030,296.400 234.800 C 296.136 235.570,295.757 236.605,295.560 237.100 C 295.362 237.595,295.043 238.405,294.851 238.900 C 287.368 258.178,270.616 277.550,252.200 288.221 C 251.100 288.858,249.660 289.694,249.000 290.078 C 246.413 291.584,241.351 293.910,237.100 295.546 C 236.605 295.737,235.750 296.090,235.200 296.330 C 217.219 304.192,183.828 304.181,164.800 296.307 C 163.308 295.689,161.898 295.129,161.000 294.797 C 160.560 294.634,159.300 294.096,158.200 293.600 C 157.100 293.104,155.750 292.496,155.200 292.249 C 144.462 287.422,128.264 274.258,119.949 263.600 C 116.386 259.033,112.800 253.834,112.800 253.235 C 112.800 252.996,112.664 252.800,112.498 252.800 C 112.331 252.800,111.941 252.215,111.630 251.500 C 111.319 250.785,110.954 250.110,110.821 250.000 C 108.641 248.210,101.703 229.823,100.029 221.400 C 98.326 212.834,98.220 211.572,98.220 200.000 C 98.220 188.383,98.306 187.367,100.053 178.500 C 101.194 172.710,104.410 162.852,106.831 157.725 C 107.474 156.364,108.000 155.074,108.000 154.859 C 108.000 154.643,108.135 154.407,108.300 154.333 C 108.555 154.220,110.091 151.450,111.754 148.103 C 111.999 147.610,112.335 147.205,112.500 147.203 C 112.665 147.201,112.800 147.006,112.800 146.768 C 112.800 146.531,113.996 144.596,115.458 142.468 C 126.133 126.932,141.712 113.784,158.200 106.395 C 160.070 105.557,160.565 105.353,162.900 104.454 C 163.395 104.263,164.250 103.921,164.800 103.694 C 166.343 103.057,167.933 102.532,171.200 101.583 C 172.850 101.104,174.650 100.566,175.200 100.388 L 176.200 100.063 175.200 100.045 C 174.650 100.035,171.320 100.989,167.800 102.164 M128.385 104.432 L 127.000 105.663 128.288 104.813 C 129.430 104.059,130.293 103.200,129.908 103.200 C 129.832 103.200,129.147 103.754,128.385 104.432 M270.005 103.473 C 270.008 103.653,270.657 104.219,271.448 104.732 C 272.240 105.245,272.772 105.478,272.631 105.251 C 272.241 104.618,269.999 103.101,270.005 103.473 M124.784 107.245 L 123.000 108.857 124.800 107.532 C 125.790 106.804,126.675 106.161,126.767 106.104 C 126.858 106.047,126.851 105.918,126.750 105.817 C 126.650 105.716,125.765 106.359,124.784 107.245 M273.216 105.873 C 273.231 106.199,276.800 108.974,276.800 108.661 C 276.800 108.570,275.990 107.833,275.000 107.021 C 274.010 106.210,273.207 105.693,273.216 105.873 M120.000 111.222 C 118.570 112.515,117.096 113.579,116.725 113.587 C 116.354 113.594,115.593 114.095,115.034 114.700 C 114.475 115.305,112.978 116.906,111.709 118.257 C 107.922 122.289,106.800 123.606,106.800 124.021 C 106.800 124.237,106.215 125.015,105.500 125.750 C 103.241 128.070,102.000 129.599,102.000 130.060 C 102.000 130.305,101.684 130.797,101.297 131.153 C 100.911 131.509,100.340 132.295,100.030 132.900 C 99.719 133.505,99.315 134.000,99.132 134.000 C 98.950 134.000,98.800 134.320,98.800 134.712 C 98.800 135.103,98.440 135.683,98.000 136.000 C 97.560 136.317,97.200 136.897,97.200 137.288 C 97.200 137.680,97.020 138.000,96.800 138.000 C 96.580 138.000,96.400 138.236,96.400 138.525 C 96.400 138.813,96.040 139.436,95.600 139.908 C 95.160 140.380,94.800 141.029,94.800 141.350 C 94.800 141.671,94.658 141.993,94.485 142.067 C 94.028 142.261,92.000 146.563,92.000 147.340 C 92.000 147.703,91.820 148.000,91.600 148.000 C 91.380 148.000,91.200 148.360,91.200 148.800 C 91.200 149.240,91.020 149.600,90.800 149.600 C 90.580 149.600,90.400 149.960,90.400 150.400 C 90.400 150.840,90.220 151.200,90.000 151.200 C 89.780 151.200,89.600 151.549,89.600 151.976 C 89.600 152.403,89.420 152.864,89.200 153.000 C 88.980 153.136,88.800 153.687,88.800 154.224 C 88.800 154.761,88.620 155.200,88.400 155.200 C 88.180 155.200,88.000 155.549,88.000 155.976 C 88.000 156.403,88.180 156.864,88.400 157.000 C 88.627 157.140,88.800 156.804,88.800 156.224 C 88.800 155.661,88.980 155.200,89.200 155.200 C 89.420 155.200,89.600 154.750,89.600 154.200 C 89.600 153.650,89.780 153.200,90.000 153.200 C 90.220 153.200,90.400 152.840,90.400 152.400 C 90.400 151.960,90.580 151.600,90.800 151.600 C 91.020 151.600,91.200 151.150,91.200 150.600 C 91.200 150.050,91.380 149.600,91.600 149.600 C 91.820 149.600,92.000 149.240,92.000 148.800 C 92.000 148.360,92.180 148.000,92.400 148.000 C 92.620 148.000,92.800 147.640,92.800 147.200 C 92.800 146.760,92.980 146.400,93.200 146.400 C 93.420 146.400,93.600 146.040,93.600 145.600 C 93.600 145.160,93.736 144.800,93.902 144.800 C 94.069 144.800,94.459 144.215,94.770 143.500 C 95.081 142.785,95.440 142.110,95.568 142.000 C 96.138 141.509,96.805 139.932,96.590 139.584 C 96.460 139.373,96.519 139.200,96.723 139.200 C 97.226 139.200,100.846 133.598,100.600 133.200 C 100.493 133.026,100.666 132.784,100.985 132.661 C 101.482 132.470,102.366 131.314,104.200 128.457 C 104.615 127.810,104.682 127.729,106.500 125.659 C 107.105 124.970,107.600 124.311,107.600 124.193 C 107.600 124.075,108.754 122.768,110.164 121.289 C 111.574 119.810,113.398 117.833,114.216 116.896 C 115.034 115.958,116.805 114.310,118.152 113.232 C 121.512 110.543,122.959 109.226,122.765 109.033 C 122.674 108.944,121.430 109.929,120.000 111.222 M279.892 111.699 C 283.303 114.846,285.154 116.697,288.301 120.108 C 289.676 121.597,290.800 122.626,290.800 122.395 C 290.800 122.164,287.926 119.101,284.412 115.588 C 280.899 112.074,277.836 109.200,277.605 109.200 C 277.374 109.200,278.403 110.324,279.892 111.699 M291.956 124.200 C 293.349 126.210,293.984 126.950,294.163 126.770 C 294.257 126.676,293.612 125.789,292.730 124.800 C 291.847 123.810,291.499 123.540,291.956 124.200 M216.000 125.404 C 206.134 127.647,198.302 133.890,194.357 142.657 C 191.159 149.766,191.230 148.426,191.214 201.289 L 191.200 247.577 190.235 249.760 C 185.459 260.559,170.549 260.704,165.441 250.000 L 164.200 247.400 163.959 231.800 C 163.691 214.472,163.673 214.341,160.837 208.606 C 158.587 204.055,153.258 197.966,150.166 196.414 C 149.525 196.092,148.550 195.538,148.000 195.183 C 144.732 193.071,136.980 191.200,131.500 191.200 C 127.290 191.200,127.600 190.501,127.600 200.000 C 127.600 209.640,127.128 208.797,132.533 208.806 C 138.424 208.816,141.789 210.482,144.638 214.800 C 146.743 217.992,146.799 218.453,146.807 232.628 C 146.818 251.238,147.760 255.613,153.366 263.070 C 167.223 281.504,198.013 277.812,205.966 256.763 C 206.249 256.013,206.628 255.040,206.807 254.600 C 208.694 249.974,208.771 247.794,208.786 198.657 L 208.800 152.314 209.976 149.857 C 215.010 139.335,229.487 139.420,234.555 150.000 L 235.800 152.600 236.041 168.200 C 236.309 185.528,236.327 185.659,239.163 191.394 C 241.413 195.945,246.742 202.034,249.834 203.586 C 250.475 203.908,251.450 204.462,252.000 204.817 C 254.875 206.675,264.507 209.194,266.221 208.537 C 266.726 208.343,266.799 207.034,266.708 199.854 L 266.600 191.400 265.400 191.296 C 261.291 190.939,257.716 188.768,255.362 185.200 C 253.260 182.013,253.201 181.532,253.193 167.572 C 253.184 151.022,252.681 147.558,249.360 141.200 C 245.666 134.124,238.318 128.080,231.000 126.097 C 230.120 125.858,228.659 125.469,227.754 125.232 C 225.605 124.668,218.798 124.768,216.000 125.404 M226.976 125.657 C 238.962 127.916,247.684 135.635,251.316 147.200 C 252.059 149.566,252.153 151.202,252.366 165.410 L 252.600 181.020 253.912 183.684 C 255.258 186.415,257.988 189.293,260.235 190.347 C 260.876 190.647,261.713 191.052,262.095 191.247 C 262.477 191.441,263.400 191.600,264.146 191.600 C 266.345 191.600,266.429 191.936,266.309 200.252 L 266.200 207.800 263.600 207.694 C 252.862 207.259,241.097 198.008,238.045 187.600 C 237.754 186.610,237.326 185.350,237.093 184.800 C 236.833 184.188,236.573 177.598,236.422 167.800 C 236.261 157.340,236.023 151.523,235.735 151.000 C 235.492 150.560,235.047 149.665,234.747 149.010 C 232.982 145.169,226.606 141.200,222.200 141.200 C 217.839 141.200,211.376 145.218,209.653 149.000 C 209.353 149.660,208.903 150.560,208.653 151.000 C 208.326 151.578,208.135 165.470,207.965 201.000 C 207.722 252.004,207.773 250.414,206.243 254.600 C 202.814 263.984,194.510 271.620,185.600 273.584 C 184.390 273.851,182.749 274.234,181.954 274.435 C 178.589 275.284,171.598 274.501,167.400 272.804 C 166.960 272.626,165.999 272.254,165.264 271.977 C 159.819 269.924,153.145 263.269,150.242 257.000 C 147.989 252.134,147.888 251.266,147.636 234.590 L 147.400 218.981 146.088 216.316 C 144.786 213.674,142.012 210.700,139.965 209.754 C 139.434 209.508,138.550 209.099,138.000 208.844 C 137.450 208.589,135.020 208.250,132.600 208.090 L 128.200 207.800 128.200 200.000 L 128.200 192.200 133.568 192.258 C 138.911 192.317,140.211 192.541,144.400 194.127 C 151.786 196.923,161.600 206.902,161.600 211.617 C 161.600 211.834,161.756 212.323,161.946 212.705 C 163.184 215.187,163.306 216.645,163.570 232.200 C 163.882 250.548,163.829 250.274,167.785 254.201 C 174.993 261.360,186.056 259.543,190.493 250.472 L 191.800 247.800 192.014 198.600 C 192.189 158.365,192.327 149.145,192.774 148.000 C 193.074 147.230,193.445 146.240,193.598 145.800 C 196.284 138.080,202.430 131.245,209.400 128.226 C 210.280 127.845,211.270 127.395,211.600 127.227 C 211.930 127.060,213.190 126.689,214.400 126.403 C 215.610 126.118,217.140 125.747,217.800 125.578 C 219.641 125.109,224.278 125.148,226.976 125.657 M295.999 129.552 C 296.960 130.922,297.917 132.149,298.126 132.278 C 298.336 132.407,297.764 131.419,296.855 130.081 C 295.947 128.744,294.990 127.517,294.728 127.355 C 294.466 127.193,295.038 128.182,295.999 129.552 M300.242 135.700 C 300.401 135.975,300.855 136.669,301.252 137.242 C 302.221 138.645,304.438 142.679,306.455 146.711 C 307.365 148.533,308.187 149.946,308.281 149.853 C 308.703 149.431,300.791 135.200,300.135 135.200 C 300.035 135.200,300.083 135.425,300.242 135.700 M87.500 157.429 C 87.335 157.596,87.200 158.063,87.200 158.467 C 87.200 158.870,87.020 159.200,86.800 159.200 C 86.580 159.200,86.400 159.639,86.400 160.176 C 86.400 160.713,86.220 161.264,86.000 161.400 C 85.780 161.536,85.600 162.087,85.600 162.624 C 85.600 163.161,85.420 163.600,85.200 163.600 C 84.980 163.600,84.800 164.230,84.800 165.000 C 84.800 165.770,84.961 166.400,85.157 166.400 C 85.685 166.400,85.976 165.396,85.726 164.439 C 85.600 163.957,85.697 163.600,85.953 163.600 C 86.199 163.600,86.400 163.060,86.400 162.400 C 86.400 161.740,86.580 161.200,86.800 161.200 C 87.020 161.200,87.200 160.765,87.200 160.233 C 87.200 159.702,87.398 159.201,87.639 159.120 C 87.881 159.040,88.016 158.558,87.939 158.049 C 87.863 157.540,87.665 157.261,87.500 157.429 M314.012 165.600 C 314.012 165.930,314.187 166.470,314.400 166.800 C 314.745 167.333,314.788 167.333,314.788 166.800 C 314.788 166.470,314.613 165.930,314.400 165.600 C 314.055 165.067,314.012 165.067,314.012 165.600 M84.000 167.800 C 84.000 168.788,84.542 169.141,84.978 168.436 C 85.267 167.968,84.824 166.800,84.357 166.800 C 84.161 166.800,84.000 167.250,84.000 167.800 M314.834 168.400 C 314.846 168.730,315.011 169.360,315.200 169.800 L 315.544 170.600 315.566 169.800 C 315.578 169.360,315.413 168.730,315.200 168.400 C 314.855 167.867,314.815 167.867,314.834 168.400 M83.200 170.600 C 83.200 171.936,83.684 172.435,84.189 171.618 C 84.505 171.107,84.006 169.200,83.557 169.200 C 83.360 169.200,83.200 169.830,83.200 170.600 M315.668 171.200 C 315.688 172.239,316.318 173.946,316.332 173.000 C 316.338 172.560,316.189 171.840,316.000 171.400 C 315.789 170.910,315.661 170.832,315.668 171.200 M82.678 173.055 C 82.263 173.471,82.342 175.600,82.773 175.600 C 83.336 175.600,83.696 174.101,83.302 173.397 C 83.112 173.056,82.831 172.903,82.678 173.055 M316.650 176.000 C 316.975 178.241,317.202 178.560,317.194 176.767 C 317.191 176.015,317.008 175.130,316.788 174.800 C 316.509 174.381,316.467 174.742,316.650 176.000 M81.600 178.249 C 81.600 179.847,81.681 180.030,82.200 179.600 C 82.830 179.077,82.966 178.098,82.557 177.033 C 82.086 175.805,81.600 176.422,81.600 178.249 M317.468 180.400 C 317.600 181.610,317.774 182.675,317.854 182.767 C 318.164 183.121,317.925 179.757,317.586 179.000 C 317.352 178.478,317.312 178.963,317.468 180.400 M80.800 182.743 C 80.800 184.910,81.424 185.841,81.820 184.265 C 82.165 182.887,81.888 181.091,81.300 180.898 C 80.945 180.781,80.800 181.314,80.800 182.743 M318.148 185.000 C 318.899 191.300,319.283 198.913,319.106 204.000 C 318.982 207.559,319.020 208.796,319.205 207.200 C 319.836 201.760,319.072 184.109,318.169 183.247 C 318.026 183.111,318.017 183.900,318.148 185.000 M80.291 186.642 C 79.932 187.001,80.297 202.126,80.831 209.000 C 81.327 215.393,82.290 222.244,82.642 221.891 C 82.747 221.786,82.562 219.923,82.232 217.750 C 81.094 210.268,80.679 203.190,80.921 195.400 C 81.141 188.297,80.974 185.960,80.291 186.642 M318.474 211.444 C 318.433 212.348,318.313 213.968,318.206 215.044 L 318.012 217.000 318.422 215.400 C 318.648 214.520,318.768 212.900,318.690 211.800 C 318.557 209.933,318.543 209.909,318.474 211.444 M317.667 218.050 C 317.630 218.628,317.505 219.707,317.389 220.450 C 317.196 221.686,317.215 221.717,317.608 220.814 C 317.845 220.271,317.970 219.191,317.886 218.414 C 317.777 217.392,317.716 217.291,317.667 218.050 M316.854 222.800 C 316.819 223.350,316.696 224.250,316.583 224.800 L 316.377 225.800 316.807 224.815 C 317.043 224.274,317.165 223.374,317.078 222.815 L 316.920 221.800 316.854 222.800 M82.828 223.433 C 82.844 224.075,83.016 224.960,83.210 225.400 C 83.447 225.934,83.486 225.602,83.327 224.400 C 83.046 222.280,82.788 221.780,82.828 223.433 M83.668 227.200 C 83.662 227.750,83.811 228.560,84.000 229.000 L 84.344 229.800 84.332 229.000 C 84.326 228.560,84.176 227.750,84.000 227.200 L 83.680 226.200 83.668 227.200 M315.800 227.600 C 315.648 228.291,315.614 228.947,315.724 229.057 C 315.834 229.167,316.048 228.691,316.200 228.000 C 316.352 227.309,316.386 226.653,316.276 226.543 C 316.166 226.433,315.952 226.909,315.800 227.600 M315.029 230.629 C 314.881 231.215,314.851 231.784,314.961 231.894 C 315.071 232.004,315.281 231.615,315.429 231.029 C 315.576 230.442,315.606 229.873,315.496 229.763 C 315.386 229.653,315.176 230.042,315.029 230.629 M84.434 230.600 C 84.422 231.040,84.587 231.670,84.800 232.000 C 85.314 232.795,85.314 231.796,84.800 230.600 L 84.456 229.800 84.434 230.600 M85.234 233.400 C 85.222 233.840,85.387 234.470,85.600 234.800 C 86.114 235.595,86.114 234.596,85.600 233.400 L 85.256 232.600 85.234 233.400 M314.200 233.600 C 314.050 234.073,314.017 234.550,314.127 234.660 C 314.237 234.770,314.450 234.473,314.600 234.000 C 314.750 233.527,314.783 233.050,314.673 232.940 C 314.563 232.830,314.350 233.127,314.200 233.600 M86.012 236.000 C 86.012 236.330,86.187 236.870,86.400 237.200 C 86.745 237.733,86.788 237.733,86.788 237.200 C 86.788 236.870,86.613 236.330,86.400 236.000 C 86.055 235.467,86.012 235.467,86.012 236.000 M86.812 238.400 C 86.812 238.730,86.987 239.270,87.200 239.600 C 87.545 240.133,87.588 240.133,87.588 239.600 C 87.588 239.270,87.413 238.730,87.200 238.400 C 86.855 237.867,86.812 237.867,86.812 238.400 M306.439 253.273 C 304.504 257.196,302.261 261.297,301.252 262.758 C 300.241 264.220,299.924 264.800,300.135 264.800 C 300.809 264.800,308.699 250.566,308.265 250.132 C 308.163 250.030,307.341 251.443,306.439 253.273 M94.923 256.871 C 96.927 260.631,99.504 264.800,99.825 264.800 C 99.935 264.800,99.421 263.855,98.683 262.700 C 97.946 261.545,96.567 259.160,95.619 257.400 C 94.671 255.640,93.711 254.020,93.485 253.800 C 93.259 253.580,93.907 254.962,94.923 256.871 M100.000 265.446 C 100.000 265.759,102.810 269.600,103.038 269.600 C 103.132 269.600,102.551 268.610,101.747 267.400 C 100.349 265.294,100.000 264.904,100.000 265.446 M297.125 268.900 C 295.128 271.578,294.258 272.935,294.723 272.647 C 295.230 272.334,298.550 267.600,298.262 267.600 C 298.170 267.600,297.659 268.185,297.125 268.900 M103.991 271.188 C 105.228 272.924,105.825 273.134,104.732 271.448 C 104.219 270.657,103.653 270.008,103.473 270.005 C 103.293 270.002,103.526 270.535,103.991 271.188 M106.796 274.794 C 108.577 277.043,109.113 277.241,107.523 275.063 C 106.795 274.065,106.050 273.238,105.866 273.225 C 105.683 273.211,106.101 273.918,106.796 274.794 M293.398 273.759 C 293.179 274.066,292.583 274.876,292.073 275.559 C 290.671 277.435,291.302 277.046,292.979 275.000 C 293.790 274.010,294.306 273.200,294.125 273.200 C 293.944 273.200,293.617 273.451,293.398 273.759 M109.200 277.615 C 109.200 278.214,121.786 290.800,122.385 290.800 C 122.638 290.800,121.799 289.860,120.522 288.710 C 117.561 286.045,113.955 282.439,111.290 279.478 C 110.140 278.201,109.200 277.362,109.200 277.615 M289.700 278.324 C 288.230 280.118,282.771 285.678,279.833 288.373 C 278.312 289.769,277.263 290.841,277.502 290.756 C 278.917 290.249,291.207 277.873,290.748 277.415 C 290.657 277.324,290.185 277.733,289.700 278.324 M124.784 292.755 C 125.765 293.641,126.650 294.284,126.750 294.183 C 126.851 294.082,126.858 293.953,126.767 293.896 C 126.675 293.839,125.790 293.196,124.800 292.468 L 123.000 291.143 124.784 292.755 M275.976 291.713 C 273.683 293.503,273.097 294.030,273.239 294.173 C 273.328 294.262,274.211 293.634,275.200 292.779 C 276.865 291.341,277.407 290.595,275.976 291.713 M127.340 294.703 C 127.496 294.956,128.191 295.567,128.884 296.060 C 129.577 296.554,130.017 296.750,129.860 296.497 C 129.704 296.244,129.009 295.633,128.316 295.140 C 127.623 294.646,127.183 294.450,127.340 294.703 M270.457 295.976 C 267.357 298.218,266.976 298.796,269.875 296.858 C 271.944 295.476,273.245 294.358,272.724 294.413 C 272.656 294.420,271.636 295.123,270.457 295.976 M130.400 296.962 C 130.400 297.281,134.437 300.096,134.625 299.909 C 134.728 299.806,133.819 299.062,132.606 298.257 C 131.393 297.451,130.400 296.868,130.400 296.962 M135.337 300.299 C 135.669 300.836,142.187 304.710,145.600 306.398 C 149.077 308.118,148.180 307.301,144.400 305.305 C 140.570 303.282,138.457 302.083,137.200 301.219 C 135.544 300.080,135.052 299.837,135.337 300.299 M262.993 301.056 C 260.952 302.409,260.232 303.123,261.826 302.214 C 263.230 301.414,265.101 300.022,264.793 300.009 C 264.679 300.004,263.869 300.475,262.993 301.056 M258.800 303.636 C 258.136 304.179,258.069 304.315,258.600 304.040 C 259.905 303.366,260.628 302.812,260.200 302.815 C 259.980 302.817,259.350 303.186,258.800 303.636 M253.487 306.304 C 251.554 307.296,250.051 308.184,250.145 308.279 C 250.309 308.443,255.946 305.682,257.200 304.823 C 258.525 303.915,256.808 304.601,253.487 306.304 M160.400 312.800 C 160.730 313.013,161.270 313.188,161.600 313.188 C 162.133 313.188,162.133 313.145,161.600 312.800 C 161.270 312.587,160.730 312.412,160.400 312.412 C 159.867 312.412,159.867 312.455,160.400 312.800 M162.800 313.600 C 163.130 313.813,163.670 313.988,164.000 313.988 C 164.533 313.988,164.533 313.945,164.000 313.600 C 163.670 313.387,163.130 313.212,162.800 313.212 C 162.267 313.212,162.267 313.255,162.800 313.600 M236.000 313.600 C 235.467 313.945,235.467 313.988,236.000 313.988 C 236.330 313.988,236.870 313.813,237.200 313.600 C 237.733 313.255,237.733 313.212,237.200 313.212 C 236.870 313.212,236.330 313.387,236.000 313.600 M165.400 314.400 C 166.596 314.914,167.595 314.914,166.800 314.400 C 166.470 314.187,165.840 314.022,165.400 314.034 L 164.600 314.056 165.400 314.400 M233.400 314.400 C 232.896 314.617,232.822 314.744,233.200 314.744 C 233.530 314.744,234.160 314.589,234.600 314.400 C 235.104 314.183,235.178 314.056,234.800 314.056 C 234.470 314.056,233.840 314.211,233.400 314.400 M168.000 315.200 C 168.330 315.413,169.050 315.573,169.600 315.554 L 170.600 315.520 169.600 315.200 C 168.058 314.706,167.236 314.706,168.000 315.200 M230.400 315.200 C 229.576 315.464,229.541 315.526,230.200 315.554 C 230.640 315.573,231.270 315.413,231.600 315.200 C 232.301 314.747,231.814 314.747,230.400 315.200 M171.200 316.000 C 171.530 316.213,172.250 316.373,172.800 316.354 L 173.800 316.320 172.800 316.000 C 171.258 315.506,170.436 315.506,171.200 316.000 M227.200 316.000 C 226.396 316.257,226.357 316.323,227.000 316.332 C 227.440 316.338,228.160 316.189,228.600 316.000 C 229.619 315.562,228.568 315.562,227.200 316.000 M174.600 316.800 C 175.040 316.989,175.940 317.135,176.600 317.125 L 177.800 317.105 176.600 316.800 C 175.940 316.632,175.040 316.486,174.600 316.475 L 173.800 316.456 174.600 316.800 M223.400 316.800 L 222.200 317.105 223.400 317.147 C 224.060 317.169,224.870 317.013,225.200 316.800 C 225.943 316.320,225.287 316.320,223.400 316.800 M178.044 317.378 C 178.142 317.475,180.017 317.821,182.211 318.145 C 192.940 319.732,201.350 319.986,210.600 319.004 C 213.680 318.676,216.365 318.407,216.567 318.404 C 216.768 318.402,216.843 318.309,216.732 318.199 C 216.621 318.088,213.846 318.267,210.565 318.598 C 201.217 319.539,189.665 319.145,181.227 317.598 C 178.895 317.171,177.759 317.092,178.044 317.378 M218.800 317.600 L 217.000 317.880 218.600 317.900 C 219.480 317.911,220.650 317.776,221.200 317.600 C 222.463 317.195,221.402 317.195,218.800 317.600 " stroke="none" fill="#146c3c" fill-rule="evenodd"></path></g></svg>